<?xml version="1.0" encoding="UTF-8" standalone="no"?> <!-- Created with Vectornator for iOS (http://vectornator.io/) --><!DOCTYPE svg PUBLIC "-//W3C//DTD SVG 1.1//EN" "http://www.w3.org/Graphics/SVG/1.1/DTD/svg11.dtd">
<svg height="100%" style="fill-rule:nonzero;clip-rule:evenodd;stroke-linecap:round;stroke-linejoin:round;" version="1.1" viewBox="0 0 495 494.999" width="100%" xml:space="preserve" xmlns="http://www.w3.org/2000/svg" xmlns:vectornator="http://vectornator.io" xmlns:xlink="http://www.w3.org/1999/xlink">
<metadata>
<vectornator:setting key="IsTimeLapseWatermarkDisabled" value="false"/>
<vectornator:setting key="UndoHistoryDisabled" value="true"/>
<vectornator:setting key="VNDimensionsVisible" value="true"/>
<vectornator:setting key="VNSnapToGuides" value="true"/>
<vectornator:setting key="WDCMYKEnabledKey" value="false"/>
<vectornator:setting key="WDDisplayWhiteBackground" value="false"/>
<vectornator:setting key="WDDynamicGuides" value="false"/>
<vectornator:setting key="WDGuidesVisible" value="true"/>
<vectornator:setting key="WDIsolateActiveLayer" value="false"/>
<vectornator:setting key="WDOutlineMode" value="false"/>
<vectornator:setting key="WDRulersVisible" value="true"/>
<vectornator:setting key="WDSnapToEdges" value="false"/>
<vectornator:setting key="WDSnapToGrid" value="false"/>
<vectornator:setting key="WDSnapToPoints" value="false"/>
<vectornator:setting key="WDUnits" value="Points"/>
</metadata>
<defs>
<linearGradient gradientTransform="matrix(1.02168 0 0 1.02168 -1.37472 -18.2796)" gradientUnits="userSpaceOnUse" id="LinearGradient" x1="11.1333" x2="476.053" y1="260.139" y2="260.139">
<stop offset="0.20775" stop-color="#0094db"/>
<stop offset="1" stop-color="#035d99"/>
</linearGradient>
</defs>
<g id="layer1" vectornator:layerName="layer1">
<path d="M35.9096 9.99944L459.09 9.99944C473.4 9.99944 485 21.5996 485 35.9091L485 459.09C485 473.399 473.4 484.999 459.09 484.999L35.9096 484.999C21.6001 484.999 10 473.399 10 459.09L10 35.9091C10 21.5996 21.6001 9.99944 35.9096 9.99944Z" fill="url(#LinearGradient)" opacity="1" stroke="#0263a0" stroke-linecap="round" stroke-linejoin="round" stroke-width="0.1"/>
<g opacity="1">
<path d="M315.51 96.5787C316.807 97.2108 318.469 96.6698 319.122 95.3331C319.771 94.0001 319.178 92.3548 317.88 91.7208C316.547 91.0719 314.917 91.6334 314.268 92.9664C313.619 94.2994 314.177 95.9261 315.51 96.5787L315.51 96.5787ZM321.148 85.0186C322.446 85.6544 324.112 85.1078 324.761 83.7767C325.409 82.44 324.816 80.7947 323.519 80.1644C322.182 79.5119 320.557 80.0752 319.906 81.41C319.258 82.7412 319.817 84.3698 321.148 85.0186L321.148 85.0186Z" fill="#000000" opacity="1" stroke="#ffffff" stroke-linecap="round" stroke-linejoin="round" stroke-width="3.32326"/>
<path d="M176.436 346.405C176.436 346.405 191.402 359.297 247.404 359.297C303.409 359.297 319.901 347.484 319.901 347.484L319.901 358.202C319.901 358.202 303.409 370.009 247.404 370.009C191.402 370.009 176.436 357.118 176.436 357.118L176.436 346.405L176.436 346.405Z" fill="none" opacity="1" stroke="#ffffff" stroke-linecap="butt" stroke-linejoin="miter" stroke-width="3.32326"/>
<path d="M365.814 368.791C365.814 365.315 368.632 362.502 372.111 362.502C375.585 362.502 378.402 365.315 378.402 368.791C378.402 372.27 375.583 375.088 372.111 375.088C368.632 375.088 365.814 372.271 365.814 368.791L365.814 368.791ZM333.824 394.399C333.824 390.93 336.642 388.109 340.119 388.109C343.595 388.109 346.416 390.93 346.416 394.399C346.416 397.877 343.597 400.696 340.119 400.696C336.64 400.696 333.824 397.877 333.824 394.399L333.824 394.399Z" fill="none" opacity="1" stroke="#ffffff" stroke-linecap="round" stroke-linejoin="round" stroke-width="3.32326"/>
<path d="M237.291 241.318C237.291 240.065 238.304 239.052 239.561 239.052C240.81 239.052 241.823 240.065 241.823 241.318C241.823 242.571 240.81 243.584 239.561 243.584C238.304 243.584 237.291 242.571 237.291 241.318L237.291 241.318Z" fill="#000000" opacity="1" stroke="#ffffff" stroke-linecap="round" stroke-linejoin="round" stroke-width="3.32326"/>
<path d="M240.907 244.718C240.907 243.465 241.92 242.452 243.173 242.452C244.426 242.452 245.439 243.465 245.439 244.718C245.439 245.968 244.426 246.981 243.173 246.981C241.92 246.981 240.907 245.968 240.907 244.718L240.907 244.718Z" fill="#000000" opacity="1" stroke="#ffffff" stroke-linecap="round" stroke-linejoin="round" stroke-width="3.32326"/>
<path d="M244.524 248.117C244.524 246.864 245.538 245.85 246.791 245.85C248.044 245.85 249.057 246.864 249.057 248.117C249.057 249.366 248.044 250.383 246.791 250.383C245.538 250.383 244.524 249.366 244.524 248.117L244.524 248.117Z" fill="#000000" opacity="1" stroke="#ffffff" stroke-linecap="round" stroke-linejoin="round" stroke-width="3.32326"/>
<path d="M247.404 252.428C247.404 251.171 248.417 250.158 249.671 250.158C250.92 250.158 251.937 251.171 251.937 252.428C251.937 253.677 250.92 254.691 249.671 254.691C248.417 254.689 247.404 253.675 247.404 252.428L247.404 252.428Z" fill="#000000" opacity="1" stroke="#ffffff" stroke-linecap="round" stroke-linejoin="round" stroke-width="3.32326"/>
<path d="M248.696 257.624C248.696 256.375 249.713 255.362 250.966 255.362C252.216 255.362 253.233 256.375 253.233 257.624C253.233 258.875 252.216 259.889 250.966 259.889C249.713 259.889 248.696 258.875 248.696 257.624L248.696 257.624Z" fill="#000000" opacity="1" stroke="#ffffff" stroke-linecap="round" stroke-linejoin="round" stroke-width="3.32326"/>
<path d="M249.085 262.374C249.085 261.123 250.102 260.103 251.355 260.103C252.604 260.103 253.617 261.123 253.617 262.374C253.617 263.624 252.604 264.637 251.355 264.637C250.102 264.637 249.085 263.624 249.085 262.374L249.085 262.374Z" fill="#000000" opacity="1" stroke="#ffffff" stroke-linecap="round" stroke-linejoin="round" stroke-width="3.32326"/>
<path d="M248.341 267.801C248.341 266.552 249.354 265.539 250.608 265.539C251.857 265.539 252.874 266.552 252.874 267.801C252.874 269.052 251.857 270.073 250.608 270.073C249.354 270.073 248.341 269.052 248.341 267.801L248.341 267.801Z" fill="#000000" opacity="1" stroke="#ffffff" stroke-linecap="round" stroke-linejoin="round" stroke-width="3.32326"/>
<path d="M247.592 273.23C247.592 271.981 248.609 270.967 249.858 270.967C251.111 270.967 252.128 271.981 252.128 273.23C252.128 274.479 251.111 275.5 249.858 275.5C248.609 275.5 247.592 274.479 247.592 273.23L247.592 273.23Z" fill="#000000" opacity="1" stroke="#ffffff" stroke-linecap="round" stroke-linejoin="round" stroke-width="3.32326"/>
<path d="M251.833 270.508C251.833 269.259 252.85 268.246 254.103 268.246C255.352 268.246 256.365 269.259 256.365 270.508C256.365 271.765 255.352 272.78 254.103 272.78C252.85 272.78 251.833 271.765 251.833 270.508L251.833 270.508Z" fill="#000000" opacity="1" stroke="#ffffff" stroke-linecap="round" stroke-linejoin="round" stroke-width="3.32326"/>
<path d="M254.714 266.435C254.714 265.178 255.731 264.165 256.981 264.165C258.234 264.165 259.247 265.178 259.247 266.435C259.247 267.684 258.234 268.699 256.981 268.699C255.729 268.699 254.714 267.684 254.714 266.435L254.714 266.435Z" fill="#000000" opacity="1" stroke="#ffffff" stroke-linecap="round" stroke-linejoin="round" stroke-width="3.32326"/>
<path d="M257.369 261.686C257.369 260.43 258.382 259.416 259.635 259.416C260.885 259.416 261.898 260.43 261.898 261.686C261.898 262.936 260.885 263.949 259.635 263.949C258.382 263.949 257.369 262.936 257.369 261.686L257.369 261.686Z" fill="#000000" opacity="1" stroke="#ffffff" stroke-linecap="round" stroke-linejoin="round" stroke-width="3.32326"/>
<path d="M260.02 256.931C260.02 255.681 261.037 254.668 262.287 254.668C263.54 254.668 264.553 255.681 264.553 256.931C264.553 258.188 263.54 259.201 262.287 259.201C261.037 259.201 260.02 258.188 260.02 256.931L260.02 256.931Z" fill="#000000" opacity="1" stroke="#ffffff" stroke-linecap="round" stroke-linejoin="round" stroke-width="3.32326"/>
<path d="M261.314 251.735C261.314 250.48 262.327 249.466 263.581 249.466C264.834 249.466 265.847 250.48 265.847 251.735C265.847 252.984 264.834 254.005 263.581 254.005C262.327 254.003 261.314 252.982 261.314 251.735L261.314 251.735Z" fill="#000000" opacity="1" stroke="#ffffff" stroke-linecap="round" stroke-linejoin="round" stroke-width="3.32326"/>
<path d="M261.703 246.981C261.703 245.731 262.716 244.718 263.969 244.718C265.218 244.718 266.235 245.731 266.235 246.981C266.235 248.234 265.218 249.251 263.969 249.251C262.718 249.253 261.703 248.234 261.703 246.981L261.703 246.981Z" fill="#000000" opacity="1" stroke="#ffffff" stroke-linecap="round" stroke-linejoin="round" stroke-width="3.32326"/>
<path d="M260.957 241.552C260.957 240.303 261.97 239.286 263.224 239.286C264.473 239.286 265.49 240.303 265.49 241.552C265.49 242.805 264.473 243.818 263.224 243.818C261.97 243.82 260.957 242.807 260.957 241.552L260.957 241.552Z" fill="#000000" opacity="1" stroke="#ffffff" stroke-linecap="round" stroke-linejoin="round" stroke-width="3.32326"/>
<path d="M138.932 187.018L175.465 187.018L175.465 199.506L138.932 199.506L138.932 187.018Z" fill="none" opacity="1" stroke="#ffffff" stroke-linecap="butt" stroke-linejoin="miter" stroke-width="3.32326"/>
<path d="M186.141 213.492C185.981 236.711 186.778 248.818 188.838 272.966C191.428 303.418 193.544 312.588 198.903 337.478M182.498 208.067C181.766 247.165 183.231 271.348 183.595 300.58C183.976 331.136 184.692 329.08 187.615 338.945M305.647 266.49C303.578 304.3 296.467 335.022 291.733 338.422M313.784 264.421C311.717 302.232 309.936 331.239 305.507 341.166" fill="none" opacity="1" stroke="#ffffff" stroke-linecap="round" stroke-linejoin="round" stroke-width="3.32326"/>
<path d="M140.782 392.289C140.782 388.812 143.596 385.992 147.073 385.992C150.549 385.992 153.37 388.812 153.37 392.289C153.37 395.765 150.551 398.586 147.073 398.586C143.594 398.586 140.782 395.765 140.782 392.289L140.782 392.289ZM111.541 367.876C111.541 364.398 114.36 361.58 117.838 361.58C121.313 361.58 124.133 364.398 124.133 367.876C124.133 371.353 121.311 374.171 117.838 374.171C114.36 374.171 111.541 371.353 111.541 367.876L111.541 367.876Z" fill="none" opacity="1" stroke="#ffffff" stroke-linecap="round" stroke-linejoin="round" stroke-width="3.32326"/>
<path d="M246.121 198.329L236.605 203.178C235.223 208.753 234.53 211.921 233.45 217.564C232.777 221.087 230.107 223.502 231.873 226.625C232.702 228.094 233.498 228.875 235.028 229.583C236.909 230.453 238.36 230.377 240.345 229.78C241.899 229.312 242.879 228.875 243.892 227.61C245.357 225.788 244.822 224.035 244.878 221.7C244.974 217.601 240.224 213.632 242.515 211.451C246.588 207.578 247.62 203.51 246.121 198.329L246.121 198.329Z" fill="none" opacity="1" stroke="#ffffff" stroke-linecap="butt" stroke-linejoin="miter" stroke-width="3.32326"/>
<path d="M268.972 208.506C269.199 213.494 273.051 214.589 273.051 218.696C273.051 222.992 273.423 222.648 272.37 224.805C271.549 226.491 270.798 227.443 269.199 228.421C266.853 229.854 264.759 230.055 262.184 229.101" fill="none" opacity="1" stroke="#ffffff" stroke-linecap="butt" stroke-linejoin="miter" stroke-width="3.32326"/>
<path d="M242.504 228.194C242.996 230.079 243.093 231.226 242.948 233.167C242.775 235.454 242.403 236.783 241.373 238.836M260.677 229.86C260.978 233 260.857 234.857 260.149 237.929C259.624 240.213 259.167 241.487 258.111 243.582" fill="none" opacity="1" stroke="#ffffff" stroke-linecap="butt" stroke-linejoin="miter" stroke-width="3.32326"/>
<path d="M247.419 198.736C251.835 197.883 254.398 197.66 258.89 197.729C262.697 197.792 264.86 198.013 268.596 198.736C269.245 201.439 269.361 203.077 269.1 205.847C269.005 206.812 268.924 207.353 268.721 208.301C269.39 211.453 269.362 213.431 268.596 216.558C267.92 219.324 266.847 220.661 265.501 223.169C264.523 224.991 263.928 226 262.811 227.741C262.127 228.862 261.537 229.438 260.396 230.087C258.15 231.36 256.025 231.36 253.785 230.087C249.546 228.012 246.281 222.751 244.115 219.049" fill="none" opacity="1" stroke="#ffffff" stroke-linecap="butt" stroke-linejoin="miter" stroke-width="3.32326"/>
<path d="M249.607 205.541L257.886 205.344L257.081 208.151L250.764 208.987L249.607 205.541Z" fill="#000000" opacity="1" stroke="#ffffff" stroke-linecap="round" stroke-linejoin="round" stroke-width="3.32326"/>
<path d="M268.329 205.145L262.145 205.007L262.811 207.71L267.343 208.696L268.329 205.145Z" fill="#000000" opacity="1" stroke="#ffffff" stroke-linecap="round" stroke-linejoin="round" stroke-width="3.32326"/>
<path d="M261.234 205.937L261.234 212.046L262.221 214.606L261.037 215.786L263.008 216.379L263.207 207.905L262.811 205.937L261.234 205.937Z" fill="#000000" opacity="1" stroke="#ffffff" stroke-linecap="round" stroke-linejoin="round" stroke-width="3.32326"/>
<path d="M263.796 220.323L255.915 220.323L257.098 221.899L259.067 222.881L263.404 223.078L263.796 220.323Z" fill="#000000" opacity="1" stroke="#ffffff" stroke-linecap="round" stroke-linejoin="round" stroke-width="3.32326"/>
<path d="M236.396 202.401C240.697 200.015 243.372 198.989 248.163 197.874C255.982 196.059 260.924 196.059 268.743 197.874L270.104 191.086C261.892 188.563 256.436 188.396 248.087 190.417C242.392 191.794 239.194 193.218 234.357 196.526L236.396 202.401L236.396 202.401ZM233.223 195.845L223.5 186.113C225.998 183.517 228.493 182.536 232.093 182.722C235.8 182.915 238.27 184.252 240.464 187.245L245.216 184.298C244.554 182.188 244.445 180.835 244.761 178.645C245.229 175.402 248.613 171.182 248.613 171.182C248.841 171.182 253.735 172.887 255.62 175.478C257.193 177.648 257.726 179.362 257.657 182.041L263.77 182.722C264.127 179.658 265.304 177.693 267.838 175.934C271.246 173.567 274.973 173.487 278.48 175.707C275.936 178.806 274.665 180.736 272.826 184.298C271.716 186.444 271.307 187.754 270.331 189.965" fill="none" opacity="1" stroke="#ffffff" stroke-linecap="butt" stroke-linejoin="miter" stroke-width="3.32326"/>
<path d="M244.666 166.255C237.423 145.431 232.938 127.005 247.404 126.384C265.841 125.592 263.079 141.512 254.519 166.404M259.899 169.025C265.168 149.523 267.646 129.21 281.651 134.721C295.044 139.989 293.563 150.864 273.64 168.068M278.134 189.719C299.707 182.605 314.385 173.956 318.458 184.367M280.644 169.126C287.926 159.159 302.157 146.437 308.77 159.728C316.705 175.676 298.168 177.369 281.789 182.103M240.591 168.52C233.472 149.521 227.01 129.134 216.948 133.549C203.416 139.484 207.995 149.056 232.44 173.5M216.595 186.63C195.518 179.011 184.412 171.375 179.139 183.09M227.461 175.311C219.774 166.517 196.295 138.984 188.92 157.478C182.497 173.597 202.313 174.517 217.956 180.292" fill="none" opacity="1" stroke="#ffffff" stroke-linecap="round" stroke-linejoin="round" stroke-width="3.32326"/>
<path d="M220.114 394.996C208.491 387.769 197.357 384.735 188.173 376.116C184.136 372.325 183.181 367.493 185.105 364.177" fill="none" opacity="1" stroke="#ffffff" stroke-linecap="butt" stroke-linejoin="miter" stroke-width="3.32326"/>
<path d="M238.163 396.953C229.572 391.123 224.55 389.167 222.628 381.391C221.635 377.365 222.351 373.881 225.387 371.126M244.552 393.88C239.28 387.215 237.614 387.195 236.766 381.385C236.242 377.788 237.884 373.881 240.674 372.242M230.659 396.115C218.439 390.283 214.28 390.387 206.5 379.989C203.185 375.553 203.464 373.603 205.105 369.169M248.341 393.88C253.612 387.215 255.276 387.195 256.125 381.385C256.65 377.788 255.008 373.881 252.214 372.242M252.402 397.121C262.106 392.651 269.297 388.048 271.22 380.268C272.212 376.243 272.025 374.16 268.985 371.403M262.234 396.115C274.451 390.283 280.653 389.582 288.428 379.186C291.746 374.755 292.981 373.076 289.268 369.447M272.778 394.996C284.401 387.769 294.258 387.249 303.438 378.628C307.474 374.837 305.639 369.167 303.719 365.848" fill="none" opacity="1" stroke="#ffffff" stroke-linecap="round" stroke-linejoin="round" stroke-width="3.32326"/>
<path d="M148.157 382.01C148.157 380.628 149.278 379.509 150.655 379.509C152.033 379.509 153.15 380.628 153.15 382.01C153.15 383.384 152.033 384.501 150.655 384.501C149.278 384.501 148.157 383.384 148.157 382.01L148.157 382.01Z" fill="#000000" opacity="1" stroke="#ffffff" stroke-linecap="round" stroke-linejoin="round" stroke-width="3.32326"/>
<path d="M153.933 388.901C153.933 387.52 155.05 386.403 156.432 386.403C157.809 386.403 158.927 387.52 158.927 388.901C158.927 390.275 157.809 391.395 156.432 391.395C155.05 391.395 153.933 390.275 153.933 388.901L153.933 388.901Z" fill="#000000" opacity="1" stroke="#ffffff" stroke-linecap="round" stroke-linejoin="round" stroke-width="3.32326"/>
<path d="M152.111 399.515C152.111 398.134 153.232 397.017 154.606 397.017C155.987 397.017 157.105 398.134 157.105 399.515C157.105 400.897 155.987 402.008 154.606 402.008C153.232 402.008 152.111 400.897 152.111 399.515L152.111 399.515Z" fill="#000000" opacity="1" stroke="#ffffff" stroke-linecap="round" stroke-linejoin="round" stroke-width="3.32326"/>
<path d="M141.049 402.534C141.049 401.153 142.167 400.036 143.544 400.036C144.922 400.036 146.039 401.153 146.039 402.534C146.039 403.908 144.922 405.028 143.544 405.028C142.167 405.028 141.049 403.908 141.049 402.534L141.049 402.534Z" fill="#000000" opacity="1" stroke="#ffffff" stroke-linecap="round" stroke-linejoin="round" stroke-width="3.32326"/>
<path d="M134.976 394.815C134.976 393.441 136.097 392.322 137.474 392.322C138.852 392.322 139.969 393.441 139.969 394.815C139.969 396.197 138.852 397.314 137.474 397.314C136.097 397.314 134.976 396.199 134.976 394.815L134.976 394.815Z" fill="#000000" opacity="1" stroke="#ffffff" stroke-linecap="round" stroke-linejoin="round" stroke-width="3.32326"/>
<path d="M137.621 384.869C137.621 383.495 138.738 382.376 140.12 382.376C141.497 382.376 142.615 383.495 142.615 384.869C142.615 386.25 141.497 387.368 140.12 387.368C138.738 387.368 137.621 386.25 137.621 384.869L137.621 384.869Z" fill="#000000" opacity="1" stroke="#ffffff" stroke-linecap="round" stroke-linejoin="round" stroke-width="3.32326"/>
<path d="M118.92 357.595C118.92 356.222 120.037 355.097 121.415 355.097C122.793 355.097 123.91 356.22 123.91 357.595C123.91 358.977 122.793 360.096 121.415 360.096C120.037 360.096 118.92 358.977 118.92 357.595L118.92 357.595Z" fill="#000000" opacity="1" stroke="#ffffff" stroke-linecap="round" stroke-linejoin="round" stroke-width="3.32326"/>
<path d="M124.696 364.489C124.696 363.108 125.814 361.989 127.191 361.989C128.569 361.989 129.686 363.108 129.686 364.489C129.686 365.87 128.569 366.98 127.191 366.98C125.814 366.98 124.696 365.87 124.696 364.489L124.696 364.489Z" fill="#000000" opacity="1" stroke="#ffffff" stroke-linecap="round" stroke-linejoin="round" stroke-width="3.32326"/>
<path d="M122.871 375.103C122.871 373.722 123.988 372.602 125.369 372.602C126.747 372.602 127.864 373.722 127.864 375.103C127.864 376.482 126.747 377.602 125.369 377.602C123.988 377.602 122.871 376.482 122.871 375.103L122.871 375.103Z" fill="#000000" opacity="1" stroke="#ffffff" stroke-linecap="round" stroke-linejoin="round" stroke-width="3.32326"/>
<path d="M111.809 378.122C111.809 376.741 112.926 375.622 114.304 375.622C115.685 375.622 116.803 376.741 116.803 378.122C116.803 379.496 115.685 380.613 114.304 380.613C112.926 380.613 111.809 379.496 111.809 378.122L111.809 378.122Z" fill="#000000" opacity="1" stroke="#ffffff" stroke-linecap="round" stroke-linejoin="round" stroke-width="3.32326"/>
<path d="M105.739 370.41C105.739 369.029 106.856 367.912 108.234 367.912C109.612 367.912 110.729 369.029 110.729 370.41C110.729 371.784 109.612 372.904 108.234 372.904C106.856 372.904 105.739 371.784 105.739 370.41L105.739 370.41Z" fill="#000000" opacity="1" stroke="#ffffff" stroke-linecap="round" stroke-linejoin="round" stroke-width="3.32326"/>
<path d="M108.383 360.462C108.383 359.081 109.5 357.964 110.878 357.964C112.255 357.964 113.373 359.081 113.373 360.462C113.373 361.836 112.255 362.955 110.878 362.955C109.5 362.955 108.383 361.836 108.383 360.462L108.383 360.462Z" fill="#000000" opacity="1" stroke="#ffffff" stroke-linecap="round" stroke-linejoin="round" stroke-width="3.32326"/>
<path d="M341.203 384.125C341.203 382.744 342.32 381.625 343.698 381.625C345.075 381.625 346.193 382.744 346.193 384.125C346.193 385.499 345.075 386.617 343.698 386.617C342.32 386.617 341.203 385.501 341.203 384.125L341.203 384.125Z" fill="#000000" opacity="1" stroke="#ffffff" stroke-linecap="round" stroke-linejoin="round" stroke-width="3.32326"/>
<path d="M346.979 391.013C346.979 389.639 348.096 388.52 349.474 388.52C350.852 388.52 351.969 389.639 351.969 391.013C351.969 392.393 350.852 393.512 349.474 393.512C348.096 393.512 346.979 392.393 346.979 391.013L346.979 391.013Z" fill="#000000" opacity="1" stroke="#ffffff" stroke-linecap="round" stroke-linejoin="round" stroke-width="3.32326"/>
<path d="M345.153 401.625C345.153 400.251 346.274 399.134 347.652 399.134C349.03 399.134 350.147 400.251 350.147 401.625C350.147 403.007 349.03 404.126 347.652 404.126C346.274 404.126 345.153 403.007 345.153 401.625L345.153 401.625Z" fill="#000000" opacity="1" stroke="#ffffff" stroke-linecap="round" stroke-linejoin="round" stroke-width="3.32326"/>
<path d="M334.092 404.645C334.092 403.265 335.209 402.146 336.586 402.146C337.964 402.146 339.085 403.265 339.085 404.645C339.085 406.026 337.964 407.138 336.586 407.138C335.209 407.138 334.092 406.026 334.092 404.645L334.092 404.645Z" fill="#000000" opacity="1" stroke="#ffffff" stroke-linecap="round" stroke-linejoin="round" stroke-width="3.32326"/>
<path d="M328.021 396.933C328.021 395.552 329.141 394.432 330.516 394.432C331.894 394.432 333.011 395.552 333.011 396.933C333.011 398.307 331.894 399.424 330.516 399.424C329.139 399.424 328.021 398.307 328.021 396.933L328.021 396.933Z" fill="#000000" opacity="1" stroke="#ffffff" stroke-linecap="round" stroke-linejoin="round" stroke-width="3.32326"/>
<path d="M330.667 386.987C330.667 385.605 331.784 384.488 333.162 384.488C334.54 384.488 335.657 385.605 335.657 386.987C335.657 388.368 334.54 389.485 333.162 389.485C331.784 389.485 330.667 388.368 330.667 386.987L330.667 386.987Z" fill="#000000" opacity="1" stroke="#ffffff" stroke-linecap="round" stroke-linejoin="round" stroke-width="3.32326"/>
<path d="M180.115 75.7062C180.115 74.3249 181.232 73.2075 182.614 73.2075C183.991 73.2075 185.109 74.3249 185.109 75.7062C185.109 77.0838 183.991 78.2012 182.614 78.2012C181.232 78.2012 180.115 77.0838 180.115 75.7062L180.115 75.7062Z" fill="#000000" opacity="1" stroke="#ffffff" stroke-linecap="round" stroke-linejoin="round" stroke-width="3.32326"/>
<path d="M185.891 82.5943C185.891 81.2167 187.009 80.0993 188.39 80.0993C189.764 80.0993 190.885 81.2167 190.885 82.5943C190.885 83.9719 189.764 85.0893 188.39 85.0893C187.009 85.0911 185.891 83.9738 185.891 82.5943L185.891 82.5943Z" fill="#000000" opacity="1" stroke="#ffffff" stroke-linecap="round" stroke-linejoin="round" stroke-width="3.32326"/>
<path d="M184.068 93.2081C184.068 91.8305 185.187 90.7131 186.563 90.7131C187.944 90.7131 189.061 91.8305 189.061 93.2081C189.061 94.5857 187.944 95.703 186.563 95.703C185.187 95.7049 184.068 94.5876 184.068 93.2081L184.068 93.2081Z" fill="#000000" opacity="1" stroke="#ffffff" stroke-linecap="round" stroke-linejoin="round" stroke-width="3.32326"/>
<path d="M173.008 96.2255C173.008 94.8478 174.125 93.7305 175.499 93.7305C176.88 93.7305 177.998 94.8497 177.998 96.2255C177.998 97.6031 176.88 98.7204 175.499 98.7204C174.125 98.7204 173.008 97.6031 173.008 96.2255L173.008 96.2255Z" fill="#000000" opacity="1" stroke="#ffffff" stroke-linecap="round" stroke-linejoin="round" stroke-width="3.32326"/>
<path d="M166.934 88.5138C166.934 87.1362 168.051 86.0188 169.433 86.0188C170.81 86.0188 171.928 87.1362 171.928 88.5138C171.928 89.8914 170.808 91.0087 169.433 91.0087C168.051 91.0087 166.934 89.8914 166.934 88.5138L166.934 88.5138Z" fill="#000000" opacity="1" stroke="#ffffff" stroke-linecap="round" stroke-linejoin="round" stroke-width="3.32326"/>
<path d="M169.578 78.5656C169.578 77.1879 170.695 76.0706 172.076 76.0706C173.454 76.0706 174.571 77.1879 174.571 78.5656C174.571 79.9469 173.454 81.0642 172.076 81.0642C170.695 81.0642 169.578 79.9469 169.578 78.5656L169.578 78.5656Z" fill="#000000" opacity="1" stroke="#ffffff" stroke-linecap="round" stroke-linejoin="round" stroke-width="3.32326"/>
<path d="M313.34 79.5472L315.041 73.8973C314.028 73.3451 311.814 72.0623 309.404 71.2313C304.158 69.4223 300.402 70.6271 299.062 74.5108C298.069 77.3869 299.235 79.7238 300.912 81.8692C303.49 85.132 307.249 87.8724 306.037 91.4029C305.281 93.5967 302.934 94.6787 299.807 93.6041C295.095 91.9792 295.42 88.3483 295.623 86.3665L294.578 86.0058L292.75 92.0164C293.86 92.7619 295.974 94.2139 298.816 95.1918C304.282 97.077 308.846 96.5508 310.596 91.481C311.44 89.0343 310.724 87.0172 309.434 85.0428C307.456 82.0254 301.914 78.2681 303.128 74.7413C303.773 72.871 305.898 71.9545 308.813 72.9584C312.624 74.271 312.68 77.1433 312.297 79.1884L313.34 79.5472L313.34 79.5472Z" fill="#000000" opacity="1" stroke="#ffffff" stroke-linecap="butt" stroke-linejoin="miter" stroke-width="3.32326"/>
<path d="M369.177 114.819L372.797 110.154C372.044 109.273 370.439 107.28 368.489 105.642C364.233 102.074 360.298 101.851 357.656 105.001C355.698 107.332 355.951 109.929 356.743 112.532C357.983 116.499 360.508 120.411 358.11 123.267C356.617 125.044 354.042 125.217 351.508 123.09C347.691 119.887 349.294 116.613 350.192 114.834L349.347 114.125L345.484 119.082C346.256 120.175 347.706 122.289 350.011 124.222C354.436 127.937 358.885 129.084 362.335 124.975C364.001 122.993 364.057 120.855 363.557 118.55C362.793 115.027 358.965 109.529 361.363 106.672C362.633 105.157 364.947 105.062 367.308 107.04C370.398 109.634 369.415 112.337 368.329 114.107L369.177 114.819L369.177 114.819Z" fill="#000000" opacity="1" stroke="#ffffff" stroke-linecap="round" stroke-linejoin="round" stroke-width="3.32326"/>
<path d="M369.177 114.819L372.797 110.154C372.044 109.273 370.439 107.28 368.489 105.642C364.233 102.074 360.298 101.851 357.656 105.001C355.698 107.332 355.951 109.929 356.743 112.532C357.983 116.499 360.508 120.411 358.11 123.267C356.617 125.044 354.042 125.217 351.508 123.09C347.691 119.887 349.294 116.613 350.192 114.834L349.347 114.125L345.484 119.082C346.256 120.175 347.706 122.289 350.011 124.222C354.436 127.937 358.885 129.084 362.335 124.975C364.001 122.993 364.057 120.855 363.557 118.55C362.793 115.027 358.965 109.529 361.363 106.672C362.633 105.157 364.947 105.062 367.308 107.04C370.398 109.634 369.415 112.337 368.329 114.107L369.177 114.819L369.177 114.819Z" fill="none" opacity="1" stroke="#ffffff" stroke-linecap="butt" stroke-linejoin="miter" stroke-width="3.32326"/>
<path d="M362.183 134.195L368.149 141.306L368.878 140.694C367.58 139.149 367.305 138.286 368.208 137.528C368.588 137.208 369.065 137.011 369.538 136.862L373.438 135.474L379.768 143.022L377.597 146.826C377.372 147.262 377.065 147.673 376.716 147.963C375.814 148.72 374.817 147.77 373.862 146.634L373.133 147.246L380.099 155.55L380.832 154.941C379.118 152.899 379.084 151.789 380.555 149.166L391.574 129.792L389.572 127.405L369.028 134.657C365.853 135.782 364.6 135.594 362.914 133.581L362.183 134.195L362.183 134.195ZM386.787 130.779L380.696 141.399L375.195 134.847L386.787 130.779L386.787 130.779Z" fill="#000000" opacity="1" stroke="#ffffff" stroke-linecap="round" stroke-linejoin="round" stroke-width="3.32326"/>
<path d="M362.183 134.195L368.149 141.306L368.878 140.694C367.58 139.149 367.305 138.286 368.208 137.528C368.588 137.208 369.065 137.011 369.538 136.862L373.438 135.474L379.768 143.022L377.597 146.826C377.372 147.262 377.065 147.673 376.716 147.963C375.814 148.72 374.817 147.77 373.862 146.634L373.133 147.246L380.099 155.55L380.832 154.941C379.118 152.899 379.084 151.789 380.555 149.166L391.574 129.792L389.572 127.405L369.028 134.657C365.853 135.782 364.6 135.594 362.914 133.581L362.183 134.195L362.183 134.195ZM386.787 130.779L380.696 141.399L375.195 134.847L386.787 130.779L386.787 130.779Z" fill="none" opacity="1" stroke="#ffffff" stroke-linecap="butt" stroke-linejoin="miter" stroke-width="3.32326"/>
<path d="M383.003 160.12L388.168 169.433L388.997 168.973C387.705 166.646 387.932 165.867 390.523 164.43L396.417 161.165L397.101 162.398C399.367 166.486 402.611 171.559 408.536 168.276C413.132 165.729 412.732 161.474 410.39 157.25L405.173 147.833L404.34 148.296C405.632 150.624 405.406 151.403 402.81 152.84L388.497 160.771C385.902 162.21 385.126 161.989 383.836 159.659L383.003 160.12L383.003 160.12ZM404.842 156.5C406.837 155.392 407.382 155.435 408.362 157.198C409.948 160.061 410.364 162.307 406.439 164.482C401.909 166.992 400.161 164.305 398.596 161.479L397.951 160.314L404.842 156.5L404.842 156.5Z" fill="#000000" opacity="1" stroke="#ffffff" stroke-linecap="round" stroke-linejoin="round" stroke-width="3.32326"/>
<path d="M383.003 160.12L388.168 169.433L388.997 168.973C387.705 166.646 387.932 165.867 390.523 164.43L396.417 161.165L397.101 162.398C399.367 166.486 402.611 171.559 408.536 168.276C413.132 165.729 412.732 161.474 410.39 157.25L405.173 147.833L404.34 148.296C405.632 150.624 405.406 151.403 402.81 152.84L388.497 160.771C385.902 162.21 385.126 161.989 383.836 159.659L383.003 160.12L383.003 160.12ZM404.842 156.5C406.837 155.392 407.382 155.435 408.362 157.198C409.948 160.061 410.364 162.307 406.439 164.482C401.909 166.992 400.161 164.305 398.596 161.479L397.951 160.314L404.842 156.5L404.842 156.5Z" fill="none" opacity="1" stroke="#ffffff" stroke-linecap="butt" stroke-linejoin="miter" stroke-width="3.32326"/>
<path d="M395.121 183.123L399.109 192.999L399.994 192.642C398.994 190.175 399.31 189.431 402.061 188.321L417.235 182.192C419.987 181.082 420.73 181.394 421.729 183.865L422.61 183.508L418.618 173.634L417.741 173.991C418.75 176.494 418.421 177.202 415.668 178.312L400.494 184.441C397.742 185.551 397.012 185.274 396 182.768L395.121 183.123L395.121 183.123Z" fill="#000000" opacity="1" stroke="#ffffff" stroke-linecap="round" stroke-linejoin="round" stroke-width="3.32326"/>
<path d="M395.121 183.123L399.109 192.999L399.994 192.642C398.994 190.175 399.31 189.431 402.061 188.321L417.235 182.192C419.987 181.082 420.73 181.394 421.729 183.865L422.61 183.508L418.618 173.634L417.741 173.991C418.75 176.494 418.421 177.202 415.668 178.312L400.494 184.441C397.742 185.551 397.012 185.274 396 182.768L395.121 183.123L395.121 183.123Z" fill="none" opacity="1" stroke="#ffffff" stroke-linecap="butt" stroke-linejoin="miter" stroke-width="3.32326"/>
<path d="M401.308 198.697L405.785 216.668L411.195 215.558L410.927 214.485C408.574 214.953 406.988 214.253 406.198 211.079L405.35 207.684C404.87 205.762 404.986 205.422 407.456 204.806L415.097 202.901L416.306 207.736C416.902 210.135 416.218 210.694 414.004 211.248L414.251 212.245L421.896 210.339L421.647 209.343C419.21 209.951 418.604 209.711 418.003 207.312L416.798 202.477L423.333 200.846C425.402 200.333 426.092 200.59 426.544 202.401L427.133 204.762C428.163 208.895 426.62 209.787 424.661 210.432L424.928 211.501L430.229 209.947L425.897 192.566L424.973 192.794C425.62 195.38 425.203 196.07 422.322 196.79L406.443 200.746C403.563 201.464 402.872 201.049 402.227 198.465L401.308 198.697L401.308 198.697Z" fill="#000000" opacity="1" stroke="#ffffff" stroke-linecap="round" stroke-linejoin="round" stroke-width="3.32326"/>
<path d="M401.308 198.697L405.785 216.668L411.195 215.558L410.927 214.485C408.574 214.953 406.988 214.253 406.198 211.079L405.35 207.684C404.87 205.762 404.986 205.422 407.456 204.806L415.097 202.901L416.306 207.736C416.902 210.135 416.218 210.694 414.004 211.248L414.251 212.245L421.896 210.339L421.647 209.343C419.21 209.951 418.604 209.711 418.003 207.312L416.798 202.477L423.333 200.846C425.402 200.333 426.092 200.59 426.544 202.401L427.133 204.762C428.163 208.895 426.62 209.787 424.661 210.432L424.928 211.501L430.229 209.947L425.897 192.566L424.973 192.794C425.62 195.38 425.203 196.07 422.322 196.79L406.443 200.746C403.563 201.464 402.872 201.049 402.227 198.465L401.308 198.697L401.308 198.697Z" fill="none" opacity="1" stroke="#ffffff" stroke-linecap="butt" stroke-linejoin="miter" stroke-width="3.32326"/>
<path d="M407.454 224.054L408.07 232.894L409.02 232.829C408.832 230.135 409.364 229.563 412.324 229.354L429.295 228.17L429.297 228.246L408.72 242.229L408.971 245.832L429.777 244.378C432.737 244.173 433.341 244.623 433.529 247.356L434.481 247.289L433.861 238.449L432.913 238.516C433.097 241.171 432.569 241.783 429.61 241.987L413.699 243.099L413.696 243.025L433.253 229.726L432.737 222.288L431.787 222.358C431.974 225.013 431.443 225.621 428.483 225.826L412.156 226.967C409.196 227.175 408.589 226.646 408.401 223.989L407.454 224.054L407.454 224.054Z" fill="#000000" opacity="1" stroke="#ffffff" stroke-linecap="round" stroke-linejoin="round" stroke-width="3.32326"/>
<path d="M407.454 224.054L408.07 232.894L409.02 232.829C408.832 230.135 409.364 229.563 412.324 229.354L429.295 228.17L429.297 228.246L408.72 242.229L408.971 245.832L429.777 244.378C432.737 244.173 433.341 244.623 433.529 247.356L434.481 247.289L433.861 238.449L432.913 238.516C433.097 241.171 432.569 241.783 429.61 241.987L413.699 243.099L413.696 243.025L433.253 229.726L432.737 222.288L431.787 222.358C431.974 225.013 431.443 225.621 428.483 225.826L412.156 226.967C409.196 227.175 408.589 226.646 408.401 223.989L407.454 224.054L407.454 224.054Z" fill="none" opacity="1" stroke="#ffffff" stroke-linecap="butt" stroke-linejoin="miter" stroke-width="3.32326"/>
<path d="M408.704 258.576L407.77 269.19L408.72 269.274C408.953 266.621 409.572 266.102 412.528 266.358L431.558 268.024L431.433 269.467C431.084 273.446 429.68 274.195 426.841 274.332L426.747 275.429L432.64 275.756L434.33 256.466L428.476 255.73L428.375 256.827C431.106 257.485 432.404 258.403 432.054 262.378L431.926 263.858L412.892 262.192C409.935 261.928 409.418 261.311 409.65 258.66L408.704 258.576L408.704 258.576Z" fill="#000000" opacity="1" stroke="#ffffff" stroke-linecap="round" stroke-linejoin="round" stroke-width="3.32326"/>
<path d="M408.704 258.576L407.77 269.19L408.72 269.274C408.953 266.621 409.572 266.102 412.528 266.358L431.558 268.024L431.433 269.467C431.084 273.446 429.68 274.195 426.841 274.332L426.747 275.429L432.64 275.756L434.33 256.466L428.476 255.73L428.375 256.827C431.106 257.485 432.404 258.403 432.054 262.378L431.926 263.858L412.892 262.192C409.935 261.928 409.418 261.311 409.65 258.66L408.704 258.576L408.704 258.576Z" fill="none" opacity="1" stroke="#ffffff" stroke-linecap="butt" stroke-linejoin="miter" stroke-width="3.32326"/>
<path d="M406.181 278.978L403.967 289.397L404.894 289.59C405.45 286.987 406.127 286.549 409.033 287.166L425.036 290.568C427.942 291.185 428.381 291.866 427.827 294.469L428.756 294.662L430.974 284.251L430.045 284.05C429.481 286.694 428.812 287.09 425.91 286.48L409.903 283.072C406.997 282.46 406.551 281.815 407.112 279.177L406.181 278.978L406.181 278.978Z" fill="#000000" opacity="1" stroke="#ffffff" stroke-linecap="round" stroke-linejoin="round" stroke-width="3.32326"/>
<path d="M406.181 278.978L403.967 289.397L404.894 289.59C405.45 286.987 406.127 286.549 409.033 287.166L425.036 290.568C427.942 291.185 428.381 291.866 427.827 294.469L428.756 294.662L430.974 284.251L430.045 284.05C429.481 286.694 428.812 287.09 425.91 286.48L409.903 283.072C406.997 282.46 406.551 281.815 407.112 279.177L406.181 278.978L406.181 278.978Z" fill="none" opacity="1" stroke="#ffffff" stroke-linecap="butt" stroke-linejoin="miter" stroke-width="3.32326"/>
<path d="M402.994 294.457L399.668 303.119L400.557 303.461C401.278 301.578 401.898 300.92 403 301.342C403.461 301.524 403.866 301.844 404.225 302.182L407.332 304.924L403.799 314.114L399.419 314.068C398.923 314.081 398.419 314.012 397.991 313.844C396.893 313.421 397.242 312.089 397.774 310.706L396.885 310.366L392.998 320.485L393.887 320.826C394.84 318.342 395.794 317.765 398.804 317.778L421.089 318.029L422.21 315.114L405.908 300.669C403.381 298.434 402.944 297.246 403.881 294.796L402.994 294.457L402.994 294.457ZM417.912 314.324L405.668 314.144L408.735 306.153L417.912 314.324L417.912 314.324Z" fill="#000000" opacity="1" stroke="#ffffff" stroke-linecap="round" stroke-linejoin="round" stroke-width="3.32326"/>
<path d="M402.994 294.457L399.668 303.119L400.557 303.461C401.278 301.578 401.898 300.92 403 301.342C403.461 301.524 403.866 301.844 404.225 302.182L407.332 304.924L403.799 314.114L399.419 314.068C398.923 314.081 398.419 314.012 397.991 313.844C396.893 313.421 397.242 312.089 397.774 310.706L396.885 310.366L392.998 320.485L393.887 320.826C394.84 318.342 395.794 317.765 398.804 317.778L421.089 318.029L422.21 315.114L405.908 300.669C403.381 298.434 402.944 297.246 403.881 294.796L402.994 294.457L402.994 294.457ZM417.912 314.324L405.668 314.144L408.735 306.153L417.912 314.324L417.912 314.324Z" fill="none" opacity="1" stroke="#ffffff" stroke-linecap="butt" stroke-linejoin="miter" stroke-width="3.32326"/>
<path d="M390.276 325.103L380.735 340.977L385.344 344.018L385.913 343.066C383.916 341.733 383.291 340.116 384.976 337.312L386.777 334.314C387.798 332.62 388.12 332.453 390.302 333.773L397.053 337.827L394.485 342.103C393.215 344.221 392.334 344.13 390.377 342.957L389.849 343.84L396.599 347.893L397.127 347.019C394.974 345.721 394.716 345.123 395.989 342.999L398.557 338.731L404.327 342.2C406.153 343.297 406.458 343.97 405.5 345.569L404.244 347.651C402.05 351.308 400.33 350.851 398.49 349.921L397.921 350.865L402.769 353.509L411.998 338.155L411.184 337.669C409.814 339.947 409.029 340.147 406.484 338.614L392.459 330.186C389.915 328.66 389.717 327.875 391.092 325.59L390.276 325.103L390.276 325.103Z" fill="#000000" opacity="1" stroke="#ffffff" stroke-linecap="round" stroke-linejoin="round" stroke-width="3.32326"/>
<path d="M390.276 325.103L380.735 340.977L385.344 344.018L385.913 343.066C383.916 341.733 383.291 340.116 384.976 337.312L386.777 334.314C387.798 332.62 388.12 332.453 390.302 333.773L397.053 337.827L394.485 342.103C393.215 344.221 392.334 344.13 390.377 342.957L389.849 343.84L396.599 347.893L397.127 347.019C394.974 345.721 394.716 345.123 395.989 342.999L398.557 338.731L404.327 342.2C406.153 343.297 406.458 343.97 405.5 345.569L404.244 347.651C402.05 351.308 400.33 350.851 398.49 349.921L397.921 350.865L402.769 353.509L411.998 338.155L411.184 337.669C409.814 339.947 409.029 340.147 406.484 338.614L392.459 330.186C389.915 328.66 389.717 327.875 391.092 325.59L390.276 325.103L390.276 325.103Z" fill="none" opacity="1" stroke="#ffffff" stroke-linecap="butt" stroke-linejoin="miter" stroke-width="3.32326"/>
<path d="M305.976 421.332L308.395 426.716C309.521 426.467 312.039 425.98 314.402 425.03C319.553 422.948 321.593 419.573 320.055 415.771C318.914 412.946 316.504 411.947 313.829 411.434C309.744 410.655 305.108 411.059 303.708 407.601C302.838 405.442 303.899 403.088 306.967 401.852C311.587 399.986 313.725 402.936 314.874 404.566L315.898 404.15L313.333 398.416C312.007 398.584 309.456 398.874 306.669 400C301.311 402.166 298.209 405.552 300.213 410.531C301.185 412.925 303.044 413.979 305.316 414.624C308.787 415.597 315.439 414.799 316.835 418.255C317.577 420.094 316.575 422.176 313.719 423.336C309.977 424.842 308.051 422.71 307 420.919L305.976 421.332L305.976 421.332Z" fill="#000000" opacity="1" stroke="#ffffff" stroke-linecap="round" stroke-linejoin="round" stroke-width="3.32326"/>
<path d="M305.976 421.332L308.395 426.716C309.521 426.467 312.039 425.98 314.402 425.03C319.553 422.948 321.593 419.573 320.055 415.771C318.914 412.946 316.504 411.947 313.829 411.434C309.744 410.655 305.108 411.059 303.708 407.601C302.838 405.442 303.899 403.088 306.967 401.852C311.587 399.986 313.725 402.936 314.874 404.566L315.898 404.15L313.333 398.416C312.007 398.584 309.456 398.874 306.669 400C301.311 402.166 298.209 405.552 300.213 410.531C301.185 412.925 303.044 413.979 305.316 414.624C308.787 415.597 315.439 414.799 316.835 418.255C317.577 420.094 316.575 422.176 313.719 423.336C309.977 424.842 308.051 422.71 307 420.919L305.976 421.332L305.976 421.332Z" fill="none" opacity="1" stroke="#ffffff" stroke-linecap="butt" stroke-linejoin="miter" stroke-width="3.32326"/>
<path d="M284.953 407.498L274.534 409.711L274.732 410.642C277.334 410.086 278.011 410.525 278.628 413.433L282.596 432.111L281.183 432.416C277.279 433.242 276.144 432.126 275.189 429.445L274.105 429.674L275.518 435.408L294.457 431.383L293.457 425.565L292.373 425.794C292.544 428.599 292.047 430.104 288.14 430.938L286.689 431.243L282.718 412.557C282.103 409.655 282.542 408.982 285.148 408.426L284.953 407.498L284.953 407.498Z" fill="#000000" opacity="1" stroke="#ffffff" stroke-linecap="round" stroke-linejoin="round" stroke-width="3.32326"/>
<path d="M284.953 407.498L274.534 409.711L274.732 410.642C277.334 410.086 278.011 410.525 278.628 413.433L282.596 432.111L281.183 432.416C277.279 433.242 276.144 432.126 275.189 429.445L274.105 429.674L275.518 435.408L294.457 431.383L293.457 425.565L292.373 425.794C292.544 428.599 292.047 430.104 288.14 430.938L286.689 431.243L282.718 412.557C282.103 409.655 282.542 408.982 285.148 408.426L284.953 407.498L284.953 407.498Z" fill="none" opacity="1" stroke="#ffffff" stroke-linecap="butt" stroke-linejoin="miter" stroke-width="3.32326"/>
<path d="M242.675 433.139C242.775 436.105 242.227 436.694 239.566 436.791L239.602 437.743L248.838 437.416L248.806 436.464C246.144 436.562 245.554 436.006 245.45 433.041L245.01 420.339C244.848 415.584 246.146 413.522 250.671 413.362C255.419 413.197 256.209 416.14 256.339 419.943L256.78 432.647C256.884 435.61 256.335 436.2 253.673 436.298L253.705 437.248L264.354 436.874L264.319 435.923C261.656 436.021 261.067 435.465 260.963 432.5L260.522 419.798C260.331 414.245 257.719 411.363 251.102 411.6C243.273 411.871 242.089 416.14 242.238 420.436L242.675 433.139L242.675 433.139Z" fill="#000000" opacity="1" stroke="#ffffff" stroke-linecap="round" stroke-linejoin="round" stroke-width="3.32326"/>
<path d="M242.675 433.139C242.775 436.105 242.227 436.694 239.566 436.791L239.602 437.743L248.838 437.416L248.806 436.464C246.144 436.562 245.554 436.006 245.45 433.041L245.01 420.339C244.848 415.584 246.146 413.522 250.671 413.362C255.419 413.197 256.209 416.14 256.339 419.943L256.78 432.647C256.884 435.61 256.335 436.2 253.673 436.298L253.705 437.248L264.354 436.874L264.319 435.923C261.656 436.021 261.067 435.465 260.963 432.5L260.522 419.798C260.331 414.245 257.719 411.363 251.102 411.6C243.273 411.871 242.089 416.14 242.238 420.436L242.675 433.139L242.675 433.139Z" fill="none" opacity="1" stroke="#ffffff" stroke-linecap="butt" stroke-linejoin="miter" stroke-width="3.32326"/>
<path d="M231.429 411.815L221.696 410.274C214.448 409.121 209.136 410.06 207.414 420.916C205.751 431.405 210.59 434.175 217.725 435.305L227.456 436.847L227.605 435.902C224.939 435.476 224.502 434.833 224.968 431.903L227.528 415.745C227.993 412.815 228.608 412.33 231.276 412.754L231.429 411.815L231.429 411.815ZM220.835 431.251C220.464 433.576 219.991 433.889 218 433.576C210.938 432.457 210.753 428.536 211.85 421.615C213.04 414.106 214.959 410.98 221.421 412.001C223.715 412.362 223.695 413.208 223.397 415.084L220.835 431.251L220.835 431.251Z" fill="#000000" opacity="1" stroke="#ffffff" stroke-linecap="round" stroke-linejoin="round" stroke-width="3.32326"/>
<path d="M231.429 411.815L221.696 410.274C214.448 409.121 209.136 410.06 207.414 420.916C205.751 431.405 210.59 434.175 217.725 435.305L227.456 436.847L227.605 435.902C224.939 435.476 224.502 434.833 224.968 431.903L227.528 415.745C227.993 412.815 228.608 412.33 231.276 412.754L231.429 411.815L231.429 411.815ZM220.835 431.251C220.464 433.576 219.991 433.889 218 433.576C210.938 432.457 210.753 428.536 211.85 421.615C213.04 414.106 214.959 410.98 221.421 412.001C223.715 412.362 223.695 413.208 223.397 415.084L220.835 431.251L220.835 431.251Z" fill="none" opacity="1" stroke="#ffffff" stroke-linecap="butt" stroke-linejoin="miter" stroke-width="3.32326"/>
<path d="M200.502 405.754L190.431 402.291L190.121 403.187C192.638 404.053 192.991 404.782 192.026 407.588L186.696 423.059C185.732 425.863 185.003 426.216 182.485 425.348L182.177 426.25L192.246 429.713L192.554 428.819C190.004 427.936 189.686 427.224 190.653 424.418L195.985 408.947C196.949 406.141 197.639 405.775 200.192 406.656L200.502 405.754L200.502 405.754Z" fill="#000000" opacity="1" stroke="#ffffff" stroke-linecap="round" stroke-linejoin="round" stroke-width="3.32326"/>
<path d="M200.502 405.754L190.431 402.291L190.121 403.187C192.638 404.053 192.991 404.782 192.026 407.588L186.696 423.059C185.732 425.863 185.003 426.216 182.485 425.348L182.177 426.25L192.246 429.713L192.554 428.819C190.004 427.936 189.686 427.224 190.653 424.418L195.985 408.947C196.949 406.141 197.639 405.775 200.192 406.656L200.502 405.754L200.502 405.754Z" fill="none" opacity="1" stroke="#ffffff" stroke-linecap="butt" stroke-linejoin="miter" stroke-width="3.32326"/>
<path d="M183.523 399.683L173.792 395.351L173.406 396.219C175.839 397.301 176.127 398.058 174.919 400.765L168.258 415.718C167.051 418.424 166.296 418.714 163.865 417.632L163.48 418.501L173.207 422.831L173.595 421.964C171.126 420.866 170.87 420.124 172.078 417.417L178.739 402.466C179.946 399.759 180.665 399.454 183.132 400.551L183.523 399.683L183.523 399.683Z" fill="#000000" opacity="1" stroke="#ffffff" stroke-linecap="round" stroke-linejoin="round" stroke-width="3.32326"/>
<path d="M183.523 399.683L173.792 395.351L173.406 396.219C175.839 397.301 176.127 398.058 174.919 400.765L168.258 415.718C167.051 418.424 166.296 418.714 163.865 417.632L163.48 418.501L173.207 422.831L173.595 421.964C171.126 420.866 170.87 420.124 172.078 417.417L178.739 402.466C179.946 399.759 180.665 399.454 183.132 400.551L183.523 399.683L183.523 399.683Z" fill="none" opacity="1" stroke="#ffffff" stroke-linecap="butt" stroke-linejoin="miter" stroke-width="3.32326"/>
<path d="M107.539 334.981L105.834 332.142L83.5038 336.28C80.8806 336.794 80.005 336.524 78.6515 334.274L77.8391 334.762L82.7156 342.882L83.5317 342.388C82.3363 340.404 82.2824 339.501 83.132 338.987C83.4889 338.774 83.9928 338.647 84.9818 338.454L102.179 335.226L102.218 335.288L91.1504 348.644C90.4774 349.443 90.113 349.796 89.7523 350.01C88.8042 350.581 88.0921 349.982 87.157 348.422L86.3427 348.91L91.9052 358.168L92.7176 357.681C91.2489 355.233 91.5371 354.53 93.6119 351.996L107.539 334.981L107.539 334.981Z" fill="#000000" opacity="1" stroke="#ffffff" stroke-linecap="round" stroke-linejoin="round" stroke-width="3.32326"/>
<path d="M107.539 334.981L105.834 332.142L83.5038 336.28C80.8806 336.794 80.005 336.524 78.6515 334.274L77.8391 334.762L82.7156 342.882L83.5317 342.388C82.3363 340.404 82.2824 339.501 83.132 338.987C83.4889 338.774 83.9928 338.647 84.9818 338.454L102.179 335.226L102.218 335.288L91.1504 348.644C90.4774 349.443 90.113 349.796 89.7523 350.01C88.8042 350.581 88.0921 349.982 87.157 348.422L86.3427 348.91L91.9052 358.168L92.7176 357.681C91.2489 355.233 91.5371 354.53 93.6119 351.996L107.539 334.981L107.539 334.981Z" fill="none" opacity="1" stroke="#ffffff" stroke-linecap="butt" stroke-linejoin="miter" stroke-width="3.32326"/>
<path d="M97.3078 315.454L93.32 305.582L92.4388 305.936C93.4316 308.408 93.1192 309.15 90.3677 310.26L75.1898 316.39C72.4402 317.501 71.6984 317.189 70.6982 314.718L69.817 315.079L73.8048 324.949L74.686 324.596C73.6765 322.09 74.0056 321.381 76.7589 320.273L91.9331 314.144C94.6846 313.032 95.4189 313.311 96.4266 315.815L97.3078 315.454L97.3078 315.454Z" fill="#000000" opacity="1" stroke="#ffffff" stroke-linecap="round" stroke-linejoin="round" stroke-width="3.32326"/>
<path d="M97.3078 315.454L93.32 305.582L92.4388 305.936C93.4316 308.408 93.1192 309.15 90.3677 310.26L75.1898 316.39C72.4402 317.501 71.6984 317.189 70.6982 314.718L69.817 315.079L73.8048 324.949L74.686 324.596C73.6765 322.09 74.0056 321.381 76.7589 320.273L91.9331 314.144C94.6846 313.032 95.4189 313.311 96.4266 315.815L97.3078 315.454L97.3078 315.454Z" fill="none" opacity="1" stroke="#ffffff" stroke-linecap="butt" stroke-linejoin="miter" stroke-width="3.32326"/>
<path d="M90.6968 298.429L86.2163 280.464L80.8062 281.576L81.074 282.644C83.4313 282.172 85.0134 282.881 85.8036 286.052L86.6513 289.445C87.131 291.362 87.0194 291.71 84.5449 292.319L76.8984 294.229L75.6974 289.389C75.1006 286.995 75.7792 286.432 77.9971 285.876L77.748 284.883L70.1051 286.785L70.3524 287.785C72.7897 287.173 73.3995 287.417 73.9963 289.811L75.201 294.651L68.6662 296.281C66.597 296.794 65.9035 296.54 65.4554 294.727L64.8661 292.366C63.8361 288.227 65.3792 287.333 67.3369 286.694L67.0692 285.627L61.7688 287.181L66.1006 304.562L67.0245 304.326C66.3831 301.743 66.7959 301.057 69.6794 300.336L85.5582 296.38C88.4342 295.664 89.1295 296.08 89.7747 298.665L90.6968 298.429L90.6968 298.429Z" fill="#000000" opacity="1" stroke="#ffffff" stroke-linecap="round" stroke-linejoin="round" stroke-width="3.32326"/>
<path d="M90.6968 298.429L86.2163 280.464L80.8062 281.576L81.074 282.644C83.4313 282.172 85.0134 282.881 85.8036 286.052L86.6513 289.445C87.131 291.362 87.0194 291.71 84.5449 292.319L76.8984 294.229L75.6974 289.389C75.1006 286.995 75.7792 286.432 77.9971 285.876L77.748 284.883L70.1051 286.785L70.3524 287.785C72.7897 287.173 73.3995 287.417 73.9963 289.811L75.201 294.651L68.6662 296.281C66.597 296.794 65.9035 296.54 65.4554 294.727L64.8661 292.366C63.8361 288.227 65.3792 287.333 67.3369 286.694L67.0692 285.627L61.7688 287.181L66.1006 304.562L67.0245 304.326C66.3831 301.743 66.7959 301.057 69.6794 300.336L85.5582 296.38C88.4342 295.664 89.1295 296.08 89.7747 298.665L90.6968 298.429L90.6968 298.429Z" fill="none" opacity="1" stroke="#ffffff" stroke-linecap="butt" stroke-linejoin="miter" stroke-width="3.32326"/>
<path d="M84.2754 271.28L83.8106 262.428L82.8643 262.477C83.0056 265.176 82.4609 265.739 79.4974 265.892L62.5087 266.781L62.505 266.712L83.3253 253.094L83.1376 249.481L62.3098 250.574C59.3426 250.727 58.7496 250.262 58.6064 247.527L57.6546 247.579L58.1175 256.425L59.0675 256.377C58.9281 253.718 59.4672 253.121 62.4344 252.969L78.3578 252.129L78.3615 252.205L58.5711 265.167L58.9634 272.607L59.9134 272.559C59.7702 269.9 60.3131 269.303 63.2765 269.143L79.6201 268.29C82.5836 268.138 83.1841 268.671 83.3235 271.332L84.2754 271.28L84.2754 271.28Z" fill="#000000" opacity="1" stroke="#ffffff" stroke-linecap="round" stroke-linejoin="round" stroke-width="3.32326"/>
<path d="M84.2754 271.28L83.8106 262.428L82.8643 262.477C83.0056 265.176 82.4609 265.739 79.4974 265.892L62.5087 266.781L62.505 266.712L83.3253 253.094L83.1376 249.481L62.3098 250.574C59.3426 250.727 58.7496 250.262 58.6064 247.527L57.6546 247.579L58.1175 256.425L59.0675 256.377C58.9281 253.718 59.4672 253.121 62.4344 252.969L78.3578 252.129L78.3615 252.205L58.5711 265.167L58.9634 272.607L59.9134 272.559C59.7702 269.9 60.3131 269.303 63.2765 269.143L79.6201 268.29C82.5836 268.138 83.1841 268.671 83.3235 271.332L84.2754 271.28L84.2754 271.28Z" fill="none" opacity="1" stroke="#ffffff" stroke-linecap="butt" stroke-linejoin="miter" stroke-width="3.32326"/>
<path d="M83.1022 239.124L84.3386 230.351L83.3979 230.219C83.0186 232.89 82.3809 233.338 79.4416 232.926L62.598 230.559L62.6072 230.483L85.6418 221.085L86.1419 217.506L65.4908 214.604C62.5552 214.191 62.0551 213.622 62.4362 210.912L61.4955 210.78L60.2592 219.555L61.2018 219.687C61.5736 217.049 62.2187 216.567 65.1543 216.98L80.9457 219.198L80.9364 219.274L59.0396 228.218L58.0003 235.601L58.9411 235.729C59.3129 233.095 59.958 232.61 62.8973 233.022L79.1014 235.304C82.0407 235.713 82.5278 236.358 82.1559 238.996L83.1022 239.124L83.1022 239.124Z" fill="#000000" opacity="1" stroke="#ffffff" stroke-linecap="round" stroke-linejoin="round" stroke-width="3.32326"/>
<path d="M83.1022 239.124L84.3386 230.351L83.3979 230.219C83.0186 232.89 82.3809 233.338 79.4416 232.926L62.598 230.559L62.6072 230.483L85.6418 221.085L86.1419 217.506L65.4908 214.604C62.5552 214.191 62.0551 213.622 62.4362 210.912L61.4955 210.78L60.2592 219.555L61.2018 219.687C61.5736 217.049 62.2187 216.567 65.1543 216.98L80.9457 219.198L80.9364 219.274L59.0396 228.218L58.0003 235.601L58.9411 235.729C59.3129 233.095 59.958 232.61 62.8973 233.022L79.1014 235.304C82.0407 235.713 82.5278 236.358 82.1559 238.996L83.1022 239.124L83.1022 239.124Z" fill="none" opacity="1" stroke="#ffffff" stroke-linecap="butt" stroke-linejoin="miter" stroke-width="3.32326"/>
<path d="M88.542 207.374L94.2681 189.757L89.0905 187.836L88.7503 188.885C90.9961 189.736 91.9666 191.17 90.9589 194.282L89.875 197.611C89.2634 199.489 88.9901 199.722 86.564 198.933L79.0717 196.496L80.6129 191.759C81.377 189.409 82.2582 189.294 84.4278 189.998L84.7439 189.02L77.2534 186.587L76.9393 187.565C79.3264 188.34 79.7112 188.866 78.949 191.216L77.4115 195.957L71.0049 193.875C68.9785 193.216 68.5267 192.629 69.1068 190.859L69.856 188.543C71.1741 184.49 72.9551 184.549 74.9574 185.038L75.2976 183.99L69.9806 182.504L64.4422 199.539L65.3439 199.835C66.1693 197.301 66.8888 196.937 69.711 197.853L85.2737 202.91C88.0996 203.83 88.4677 204.544 87.6404 207.078L88.542 207.374L88.542 207.374Z" fill="#000000" opacity="1" stroke="#ffffff" stroke-linecap="round" stroke-linejoin="round" stroke-width="3.32326"/>
<path d="M88.542 207.374L94.2681 189.757L89.0905 187.836L88.7503 188.885C90.9961 189.736 91.9666 191.17 90.9589 194.282L89.875 197.611C89.2634 199.489 88.9901 199.722 86.564 198.933L79.0717 196.496L80.6129 191.759C81.377 189.409 82.2582 189.294 84.4278 189.998L84.7439 189.02L77.2534 186.587L76.9393 187.565C79.3264 188.34 79.7112 188.866 78.949 191.216L77.4115 195.957L71.0049 193.875C68.9785 193.216 68.5267 192.629 69.1068 190.859L69.856 188.543C71.1741 184.49 72.9551 184.549 74.9574 185.038L75.2976 183.99L69.9806 182.504L64.4422 199.539L65.3439 199.835C66.1693 197.301 66.8888 196.937 69.711 197.853L85.2737 202.91C88.0996 203.83 88.4677 204.544 87.6404 207.078L88.542 207.374L88.542 207.374Z" fill="none" opacity="1" stroke="#ffffff" stroke-linecap="butt" stroke-linejoin="miter" stroke-width="3.32326"/>
<path d="M97.6555 181.132L101.952 173.385L101.119 172.92C99.8102 175.283 99.0535 175.471 96.4582 174.034L81.5796 165.787L81.6187 165.722L106.49 165.201L108.245 162.043L90.0033 151.929C87.408 150.492 87.1496 149.783 88.477 147.389L87.6441 146.928L83.3476 154.677L84.1806 155.136C85.4708 152.81 86.246 152.587 88.8451 154.024L102.79 161.756L102.751 161.823L79.1051 162.327L75.4891 168.849L76.322 169.308C77.6123 166.982 78.3875 166.757 80.9866 168.198L95.2962 176.129C97.8916 177.568 98.1147 178.347 96.8226 180.675L97.6555 181.132L97.6555 181.132Z" fill="#000000" opacity="1" stroke="#ffffff" stroke-linecap="round" stroke-linejoin="round" stroke-width="3.32326"/>
<path d="M97.6555 181.132L101.952 173.385L101.119 172.92C99.8102 175.283 99.0535 175.471 96.4582 174.034L81.5796 165.787L81.6187 165.722L106.49 165.201L108.245 162.043L90.0033 151.929C87.408 150.492 87.1496 149.783 88.477 147.389L87.6441 146.928L83.3476 154.677L84.1806 155.136C85.4708 152.81 86.246 152.587 88.8451 154.024L102.79 161.756L102.751 161.823L79.1051 162.327L75.4891 168.849L76.322 169.308C77.6123 166.982 78.3875 166.757 80.9866 168.198L95.2962 176.129C97.8916 177.568 98.1147 178.347 96.8226 180.675L97.6555 181.132L97.6555 181.132Z" fill="none" opacity="1" stroke="#ffffff" stroke-linecap="butt" stroke-linejoin="miter" stroke-width="3.32326"/>
<path d="M110.136 127.864L105.41 124.328C104.545 125.096 102.582 126.734 100.974 128.716C97.4789 133.029 97.3264 136.968 100.519 139.554C102.885 141.471 105.475 141.172 108.067 140.332C112.013 139.026 115.88 136.429 118.777 138.777C120.582 140.239 120.796 142.81 118.714 145.385C115.579 149.255 112.276 147.707 110.482 146.842L109.788 147.696L114.81 151.471C115.893 150.679 117.979 149.19 119.87 146.855C123.51 142.364 124.579 137.898 120.413 134.52C118.4 132.893 116.262 132.871 113.964 133.41C110.456 134.239 105.023 138.162 102.125 135.814C100.587 134.568 100.455 132.257 102.393 129.861C104.934 126.73 107.654 127.662 109.442 128.719L110.136 127.864L110.136 127.864Z" fill="#000000" opacity="1" stroke="#ffffff" stroke-linecap="round" stroke-linejoin="round" stroke-width="3.32326"/>
<path d="M110.136 127.864L105.41 124.328C104.545 125.096 102.582 126.734 100.974 128.716C97.4789 133.029 97.3264 136.968 100.519 139.554C102.885 141.471 105.475 141.172 108.067 140.332C112.013 139.026 115.88 136.429 118.777 138.777C120.582 140.239 120.796 142.81 118.714 145.385C115.579 149.255 112.276 147.707 110.482 146.842L109.788 147.696L114.81 151.471C115.893 150.679 117.979 149.19 119.87 146.855C123.51 142.364 124.579 137.898 120.413 134.52C118.4 132.893 116.262 132.871 113.964 133.41C110.456 134.239 105.023 138.162 102.125 135.814C100.587 134.568 100.455 132.257 102.393 129.861C104.934 126.73 107.654 127.662 109.442 128.719L110.136 127.864L110.136 127.864Z" fill="none" opacity="1" stroke="#ffffff" stroke-linecap="butt" stroke-linejoin="miter" stroke-width="3.32326"/>
<path d="M132.324 132.505L140.241 125.379L139.605 124.674C137.627 126.455 136.822 126.412 134.836 124.205L123.886 112.047C121.897 109.838 121.939 109.033 123.921 107.254L123.285 106.546L115.369 113.672L116.003 114.38C118.013 112.571 118.79 112.64 120.776 114.845L131.722 127.007C133.711 129.212 133.696 129.991 131.687 131.8L132.324 132.505L132.324 132.505Z" fill="#000000" opacity="1" stroke="#ffffff" stroke-linecap="round" stroke-linejoin="round" stroke-width="3.32326"/>
<path d="M132.324 132.505L140.241 125.379L139.605 124.674C137.627 126.455 136.822 126.412 134.836 124.205L123.886 112.047C121.897 109.838 121.939 109.033 123.921 107.254L123.285 106.546L115.369 113.672L116.003 114.38C118.013 112.571 118.79 112.64 120.776 114.845L131.722 127.007C133.711 129.212 133.696 129.991 131.687 131.8L132.324 132.505L132.324 132.505Z" fill="none" opacity="1" stroke="#ffffff" stroke-linecap="butt" stroke-linejoin="miter" stroke-width="3.32326"/>
<path d="M149.114 94.8237L145.543 90.1238C144.502 90.6239 142.159 91.6576 140.073 93.1189C135.522 96.2998 134.288 100.046 136.647 103.409C138.389 105.904 140.964 106.332 143.686 106.241C147.839 106.071 152.271 104.642 154.411 107.694C155.744 109.596 155.244 112.13 152.529 114.029C148.449 116.884 145.703 114.486 144.214 113.16L143.312 113.792L147.103 118.805C148.359 118.342 150.774 117.487 153.238 115.763C157.971 112.445 160.235 108.447 157.16 104.054C155.675 101.937 153.624 101.327 151.267 101.212C147.664 101.042 141.362 103.314 139.224 100.262C138.09 98.6405 138.595 96.3816 141.118 94.6136C144.422 92.299 146.783 93.948 148.213 95.4539L149.114 94.8237L149.114 94.8237Z" fill="#000000" opacity="1" stroke="#ffffff" stroke-linecap="round" stroke-linejoin="round" stroke-width="3.32326"/>
<path d="M149.114 94.8237L145.543 90.1238C144.502 90.6239 142.159 91.6576 140.073 93.1189C135.522 96.2998 134.288 100.046 136.647 103.409C138.389 105.904 140.964 106.332 143.686 106.241C147.839 106.071 152.271 104.642 154.411 107.694C155.744 109.596 155.244 112.13 152.529 114.029C148.449 116.884 145.703 114.486 144.214 113.16L143.312 113.792L147.103 118.805C148.359 118.342 150.774 117.487 153.238 115.763C157.971 112.445 160.235 108.447 157.16 104.054C155.675 101.937 153.624 101.327 151.267 101.212C147.664 101.042 141.362 103.314 139.224 100.262C138.09 98.6405 138.595 96.3816 141.118 94.6136C144.422 92.299 146.783 93.948 148.213 95.4539L149.114 94.8237L149.114 94.8237Z" fill="none" opacity="1" stroke="#ffffff" stroke-linecap="butt" stroke-linejoin="miter" stroke-width="3.32326"/>
<path d="M338.079 88.5175C338.079 87.1399 339.197 86.0225 340.578 86.0225C341.956 86.0225 343.069 87.1399 343.069 88.5175C343.069 89.8988 341.956 91.0162 340.578 91.0162C339.197 91.0162 338.079 89.8988 338.079 88.5175L338.079 88.5175Z" fill="#000000" opacity="1" stroke="#ffffff" stroke-linecap="round" stroke-linejoin="round" stroke-width="3.32326"/>
<path d="M343.854 95.4093C343.854 94.0317 344.971 92.9144 346.352 92.9144C347.73 92.9144 348.847 94.0317 348.847 95.4093C348.847 96.7869 347.73 97.908 346.352 97.908C344.971 97.908 343.854 96.7869 343.854 95.4093L343.854 95.4093Z" fill="#000000" opacity="1" stroke="#ffffff" stroke-linecap="round" stroke-linejoin="round" stroke-width="3.32326"/>
<path d="M342.032 106.027C342.032 104.645 343.149 103.528 344.527 103.528C345.908 103.528 347.022 104.645 347.022 106.027C347.022 107.404 345.908 108.522 344.527 108.522C343.149 108.522 342.032 107.404 342.032 106.027L342.032 106.027Z" fill="#000000" opacity="1" stroke="#ffffff" stroke-linecap="round" stroke-linejoin="round" stroke-width="3.32326"/>
<path d="M330.968 109.039C330.968 107.661 332.089 106.544 333.463 106.544C334.844 106.544 335.962 107.661 335.962 109.039C335.962 110.42 334.844 111.537 333.463 111.537C332.089 111.537 330.968 110.42 330.968 109.039L330.968 109.039Z" fill="#000000" opacity="1" stroke="#ffffff" stroke-linecap="round" stroke-linejoin="round" stroke-width="3.32326"/>
<path d="M324.898 101.327C324.898 99.9493 326.017 98.832 327.397 98.832C328.774 98.832 329.888 99.9493 329.888 101.327C329.888 102.708 328.774 103.826 327.397 103.826C326.015 103.826 324.898 102.708 324.898 101.327L324.898 101.327Z" fill="#000000" opacity="1" stroke="#ffffff" stroke-linecap="round" stroke-linejoin="round" stroke-width="3.32326"/>
<path d="M327.542 91.3843C327.542 90.0067 328.659 88.8856 330.04 88.8856C331.414 88.8856 332.532 90.0067 332.532 91.3843C332.532 92.7619 331.414 93.8792 330.04 93.8792C328.659 93.8792 327.542 92.7619 327.542 91.3843L327.542 91.3843Z" fill="#000000" opacity="1" stroke="#ffffff" stroke-linecap="round" stroke-linejoin="round" stroke-width="3.32326"/>
<path d="M373.193 358.512C373.193 357.138 374.31 356.019 375.688 356.019C377.069 356.019 378.186 357.138 378.186 358.512C378.186 359.893 377.069 361.011 375.688 361.011C374.31 361.011 373.193 359.893 373.193 358.512L373.193 358.512Z" fill="#000000" opacity="1" stroke="#ffffff" stroke-linecap="round" stroke-linejoin="round" stroke-width="3.32326"/>
<path d="M378.967 365.404C378.967 364.03 380.084 362.913 381.462 362.913C382.84 362.913 383.961 364.03 383.961 365.404C383.961 366.785 382.84 367.904 381.462 367.904C380.084 367.904 378.967 366.785 378.967 365.404L378.967 365.404Z" fill="#000000" opacity="1" stroke="#ffffff" stroke-linecap="round" stroke-linejoin="round" stroke-width="3.32326"/>
<path d="M377.145 376.018C377.145 374.644 378.262 373.526 379.636 373.526C381.018 373.526 382.135 374.644 382.135 376.018C382.135 377.399 381.018 378.518 379.636 378.518C378.262 378.518 377.145 377.399 377.145 376.018L377.145 376.018Z" fill="#000000" opacity="1" stroke="#ffffff" stroke-linecap="round" stroke-linejoin="round" stroke-width="3.32326"/>
<path d="M366.081 379.037C366.081 377.657 367.199 376.538 368.576 376.538C369.954 376.538 371.071 377.657 371.071 379.037C371.071 380.418 369.954 381.537 368.576 381.537C367.199 381.537 366.081 380.418 366.081 379.037L366.081 379.037Z" fill="#000000" opacity="1" stroke="#ffffff" stroke-linecap="round" stroke-linejoin="round" stroke-width="3.32326"/>
<path d="M360.011 371.327C360.011 369.946 361.129 368.826 362.506 368.826C363.888 368.826 365.001 369.946 365.001 371.327C365.001 372.701 363.888 373.818 362.506 373.818C361.129 373.818 360.011 372.701 360.011 371.327L360.011 371.327Z" fill="#000000" opacity="1" stroke="#ffffff" stroke-linecap="round" stroke-linejoin="round" stroke-width="3.32326"/>
<path d="M362.655 361.379C362.655 359.997 363.769 358.88 365.15 358.88C366.528 358.88 367.645 359.997 367.645 361.379C367.645 362.76 366.528 363.877 365.15 363.877C363.769 363.877 362.655 362.76 362.655 361.379L362.655 361.379Z" fill="#000000" opacity="1" stroke="#ffffff" stroke-linecap="round" stroke-linejoin="round" stroke-width="3.32326"/>
<path d="M345.159 291.916L338.71 303.086L332.258 291.916L345.159 291.916L345.159 291.916ZM345.159 274.037L338.71 262.86L332.258 274.037L345.159 274.037L345.159 274.037Z" fill="none" opacity="1" stroke="#ffffff" stroke-linecap="round" stroke-linejoin="round" stroke-width="3.32326"/>
<path d="M332.786 282.713C332.786 279.443 335.438 276.792 338.711 276.792C341.982 276.792 344.633 279.443 344.633 282.713C344.633 285.984 341.982 288.635 338.711 288.635C335.438 288.633 332.786 285.982 332.786 282.713L332.786 282.713ZM338.711 239.765L338.711 255.702M338.711 306.215L338.711 324.916" fill="none" opacity="1" stroke="#ffffff" stroke-linecap="round" stroke-linejoin="round" stroke-width="3.32326"/>
<path d="M325.369 231.885L351.01 231.885M325.369 336.017L351.01 336.017" fill="none" opacity="1" stroke="#ffffff" stroke-linecap="round" stroke-linejoin="round" stroke-width="3.32326"/>
<path d="M322.037 187.646L358.572 187.646L358.572 200.138L322.037 200.138L322.037 187.646L322.037 187.646ZM321.368 210.741L357.903 210.741L357.903 223.232L321.368 223.232L321.368 210.741L321.368 210.741ZM325.488 223.933L353.021 223.933L353.021 345.851L325.488 345.851L325.488 223.933L325.488 223.933Z" fill="none" opacity="1" stroke="#ffffff" stroke-linecap="butt" stroke-linejoin="miter" stroke-width="3.32326"/>
<path d="M323.593 202.365L323.593 208.103C325.21 208.179 326.32 207.751 327.469 206.613C328.715 205.375 329.159 204.107 328.958 202.365L323.593 202.365L323.593 202.365ZM355.656 202.365L355.656 208.867C353.646 208.8 352.311 208.151 351.015 206.613C349.883 205.271 349.481 204.122 349.526 202.365L355.656 202.365L355.656 202.365ZM329.723 202.365C329.732 203.938 330.011 204.903 330.84 206.238C331.615 207.495 332.286 208.132 333.578 208.844C334.995 208.015 335.728 207.286 336.557 205.866C337.282 204.63 337.549 203.791 337.674 202.365L329.723 202.365L329.723 202.365ZM339.184 202.365C339.191 203.938 339.468 204.903 340.297 206.238C341.073 207.495 341.746 208.132 343.036 208.844C344.794 208.229 345.782 207.446 346.776 205.866C347.544 204.656 347.817 203.795 347.896 202.365L339.184 202.365L339.184 202.365Z" fill="none" opacity="1" stroke="#ffffff" stroke-linecap="round" stroke-linejoin="round" stroke-width="3.32326"/>
<path d="M319.077 345.712L357.903 345.712L357.903 358.207L319.077 358.207L319.077 345.712Z" fill="none" opacity="1" stroke="#ffffff" stroke-linecap="butt" stroke-linejoin="miter" stroke-width="3.32326"/>
<path d="M141.445 202.231L141.445 207.965C143.063 208.045 144.173 207.617 145.322 206.48C146.567 205.239 147.012 203.973 146.811 202.231L141.445 202.231L141.445 202.231ZM173.506 202.231L173.506 208.733C171.492 208.662 170.161 208.017 168.866 206.48C167.733 205.137 167.332 203.985 167.376 202.231L173.506 202.231L173.506 202.231ZM147.575 202.231C147.584 203.804 147.863 204.767 148.692 206.108C149.466 207.361 150.135 208 151.427 208.71C152.842 207.881 153.578 207.149 154.405 205.732C155.134 204.496 155.402 203.657 155.523 202.231L147.575 202.231L147.575 202.231ZM157.032 202.231C157.043 203.804 157.32 204.767 158.15 206.108C158.925 207.361 159.598 208 160.888 208.71C162.647 208.091 163.634 207.309 164.629 205.732C165.396 204.522 165.67 203.661 165.746 202.231L157.032 202.231L157.032 202.231Z" fill="none" opacity="1" stroke="#ffffff" stroke-linecap="round" stroke-linejoin="round" stroke-width="3.32326"/>
<path d="M144.621 336.016L170.258 336.016" fill="none" opacity="1" stroke="#ffffff" stroke-linecap="round" stroke-linejoin="round" stroke-width="3.32326"/>
<path d="M143.816 223.933L171.349 223.933L171.349 345.15L143.816 345.15L143.816 223.933L143.816 223.933ZM138.17 210.741L174.705 210.741L174.705 223.232L138.17 223.232L138.17 210.741L138.17 210.741Z" fill="none" opacity="1" stroke="#ffffff" stroke-linecap="butt" stroke-linejoin="miter" stroke-width="3.32326"/>
<path d="M163.941 290.083L157.493 301.26L151.044 290.083L163.941 290.083L163.941 290.083ZM163.941 272.202L157.493 261.034L151.044 272.202L163.941 272.202L163.941 272.202Z" fill="none" opacity="1" stroke="#ffffff" stroke-linecap="round" stroke-linejoin="round" stroke-width="3.32326"/>
<path d="M151.568 280.886C151.568 277.617 154.219 274.959 157.493 274.959C160.762 274.959 163.415 277.619 163.415 280.886C163.415 284.156 160.763 286.809 157.493 286.809C154.219 286.809 151.568 284.156 151.568 280.886L151.568 280.886ZM157.493 237.934L157.493 253.878M157.493 304.391L157.493 323.092" fill="none" opacity="1" stroke="#ffffff" stroke-linecap="round" stroke-linejoin="round" stroke-width="3.32326"/>
<path d="M136.641 345.712L175.465 345.712L175.465 358.207L136.641 358.207L136.641 345.712Z" fill="none" opacity="1" stroke="#ffffff" stroke-linecap="butt" stroke-linejoin="miter" stroke-width="3.32326"/>
<path d="M144.621 231.885L170.258 231.885" fill="none" opacity="1" stroke="#ffffff" stroke-linecap="round" stroke-linejoin="round" stroke-width="3.32326"/>
<path d="M231.369 115.38C230.161 116.568 228.482 117.273 226.656 117.206C223.13 117.085 220.371 114.123 220.493 110.598C220.618 107.072 223.576 104.309 227.104 104.434M216.963 119.861C216.054 121.287 214.572 122.352 212.784 122.7C209.316 123.373 205.964 121.11 205.291 117.646C204.618 114.179 206.881 110.823 210.344 110.152M204.626 126.02C204.033 127.6 202.806 128.95 201.127 129.664C197.877 131.041 194.125 129.524 192.748 126.277C191.367 123.027 192.884 119.277 196.131 117.899M192.818 133.839C192.566 135.513 191.645 137.086 190.153 138.132C187.262 140.155 183.277 139.45 181.249 136.559C179.226 133.668 179.927 129.688 182.822 127.662M182.037 144.738C182.138 146.428 181.565 148.157 180.323 149.493C177.916 152.072 173.874 152.213 171.294 149.806C168.711 147.402 168.57 143.356 170.977 140.776M173.701 156.737C174.153 158.363 173.954 160.176 173.013 161.741C171.195 164.764 167.27 165.746 164.247 163.924C161.221 162.109 160.243 158.183 162.061 155.158M167.267 169.578C168.02 171.087 168.168 172.909 167.547 174.621C166.339 177.938 162.671 179.647 159.352 178.442C156.038 177.233 154.327 173.565 155.534 170.251M266.339 116.057C267.548 117.239 269.227 117.944 271.049 117.883C274.575 117.762 277.334 114.8 277.212 111.273C277.091 107.745 274.129 104.984 270.601 105.11M280.744 121.433C281.653 122.856 283.135 123.921 284.927 124.272C288.391 124.942 291.746 122.683 292.419 119.216C293.092 115.752 290.83 112.398 287.362 111.721M293.085 128.485C293.674 130.067 294.905 131.417 296.58 132.129C299.833 133.51 303.581 131.993 304.963 128.745C306.34 125.498 304.823 121.746 301.575 120.368M304.892 136.308C305.141 137.978 306.061 139.558 307.558 140.603C310.445 142.626 314.433 141.925 316.458 139.03C318.484 136.143 317.78 132.155 314.889 130.13M315.673 147.205C315.569 148.893 316.142 150.627 317.384 151.96C319.789 154.543 323.837 154.682 326.417 152.273C328.999 149.869 329.139 145.825 326.729 143.243M324.006 159.204C323.554 160.832 323.753 162.647 324.694 164.208C326.512 167.235 330.436 168.213 333.463 166.395C336.486 164.58 337.468 160.652 335.649 157.629M330.44 172.047C329.687 173.56 329.535 175.378 330.159 177.088C331.366 180.407 335.036 182.117 338.353 180.909C341.667 179.702 343.378 176.036 342.171 172.718" fill="none" opacity="1" stroke="#ffffff" stroke-linecap="butt" stroke-linejoin="miter" stroke-width="3.32326"/>
<path d="M239.633 107.008C239.633 99.9419 243.357 94.2157 247.956 94.2157C252.556 94.2157 256.283 99.9419 256.283 107.008C256.283 114.079 252.556 119.805 247.956 119.805C243.357 119.805 239.633 114.079 239.633 107.008L239.633 107.008Z" fill="none" opacity="1" stroke="#ffffff" stroke-linecap="butt" stroke-linejoin="miter" stroke-width="3.32326"/>
<path d="M241.598 95.3294C194.917 101.256 150.983 140.56 144.437 186.855L169.496 187.022C176.187 149.938 208.614 121.811 247.624 121.811M247.661 121.811C286.875 121.811 319.073 149.553 325.528 186.925L350.563 186.855C344.129 137.799 304.36 99.1127 254.46 96.1827" fill="none" opacity="1" stroke="#ffffff" stroke-linecap="butt" stroke-linejoin="miter" stroke-width="3.32326"/>
<path d="M254.495 257.606L257.886 257.606M238.2 237.246L228.019 240.182L225.528 241.998L229.832 249.691L231.862 259.188L247.402 257.832M265.851 258.002L269.173 258.002L273.718 248.107L273.049 245.389L267.836 242.679M233.45 239.73L237.746 248.106L238.427 252.629L244.986 252.629M253.361 251.052L259.699 250.372" fill="none" opacity="1" stroke="#ffffff" stroke-linecap="round" stroke-linejoin="round" stroke-width="3.32326"/>
<path d="M249.687 246.248L260.669 246.248M225.251 329.379C224.214 332.3 223.686 333.968 222.856 336.952C221.903 340.387 220.919 342.289 220.767 345.849C220.731 346.664 220.731 347.121 220.767 347.939M240.488 330.843L237.7 339.735L237.235 347.238M268.013 328.684L271.96 340.9L271.495 348.863M259.976 330.073L261.441 344.226L261.441 349.404M248.758 331.073L249.687 349.404M213.267 324.507C211.577 329.045 210.789 331.69 209.709 336.416C208.491 341.769 208.026 344.859 207.619 350.334C209.712 351.027 210.906 351.38 213.033 351.959C217.372 353.124 222.297 354.102 224.319 354.277C227.804 354.582 251.221 356.554 267.778 352.888C270.565 352.652 273.655 352.423 277.139 352.187C277.972 352.131 279.874 351.624 279.764 350.798C279.229 346.773 279.487 345.301 278.996 341.832C278.385 337.493 278.167 334.961 276.674 330.843C275.849 328.573 275.282 327.318 274.12 325.2" fill="none" opacity="1" stroke="#ffffff" stroke-linecap="round" stroke-linejoin="round" stroke-width="3.32326"/>
<path d="M279.279 207.193L306.781 207.193L316.298 212.222M279.959 208.143L284.797 212.247L284.715 252.461L279.971 247.436L279.959 208.143L279.959 208.143ZM284.585 212.362L316.026 212.362L316.026 253.538L285.04 253.538M293.86 253.538L293.86 212.362L287.758 206.857M300.648 206.857L307.486 211.702L307.437 252.629M279.688 215.89L284.815 221.405L315.357 221.405M279.688 237.096L284.36 242.904L315.582 242.904" fill="none" opacity="1" stroke="#ffffff" stroke-linecap="butt" stroke-linejoin="miter" stroke-width="3.32326"/>
<path d="M330.7 98.7966C330.7 95.3219 333.519 92.5053 336.995 92.5053C340.474 92.5053 343.292 95.3238 343.292 98.7966C343.292 102.279 340.474 105.094 336.995 105.094C333.519 105.094 330.7 102.277 330.7 98.7966L330.7 98.7966ZM172.736 85.9835C172.736 82.5088 175.558 79.6903 179.033 79.6903C182.512 79.6903 185.328 82.5088 185.328 85.9835C185.328 89.4619 182.51 92.2785 179.033 92.2785C175.558 92.2785 172.736 89.4601 172.736 85.9835L172.736 85.9835Z" fill="none" opacity="1" stroke="#ffffff" stroke-linecap="round" stroke-linejoin="round" stroke-width="3.32326"/>
<path d="M207.314 218.411L237.644 300.323M211.35 215.651L245.03 303.723M211.99 215.013C211.583 212.682 211.994 211.001 213.423 209.116C215.249 206.71 217.606 205.749 220.594 206.193C218.696 204.224 216.498 203.603 213.851 204.28C212.018 204.749 210.949 205.492 209.867 207.043C209.346 205.81 208.961 205.141 208.166 204.068C206.853 202.302 205.862 201.413 203.966 200.296C203.077 202.032 202.772 203.183 202.692 205.132C202.616 207.045 202.817 208.192 203.544 209.967C201.499 209.11 199.906 209.11 197.862 209.967C195.615 210.904 194.38 212.261 193.666 214.585C196.249 213.303 198.158 213.037 200.997 213.58C202.378 213.844 203.28 213.933 204.395 214.797C205.565 215.71 206.109 216.547 206.466 217.986C207.071 216.848 207.667 216.255 208.805 215.651C209.921 215.056 210.726 214.896 211.99 215.013L211.99 215.013ZM209.015 223.885C209.119 222.877 209.595 222.202 210.501 221.756C211.454 221.291 212.343 221.364 213.211 221.972M211.14 228.503C210.88 227.51 211.175 226.636 211.992 226.008C213.033 225.203 214.531 225.392 215.336 226.434M266.083 287.779C269.991 292.777 271.828 296.004 274.122 301.926C277.273 310.054 278.149 315.252 277.836 323.964L267.083 323.964C264.144 325.191 262.398 325.726 259.279 326.358C254.731 327.28 252.041 327.106 247.404 327.059C241.295 326.983 237.467 326.594 231.825 325.427C229.12 324.871 228.077 324.622 225.716 323.964C221.921 325.066 219.378 325.066 215.585 323.964C213.849 323.456 212.888 323.04 211.337 322.11C211.614 317.667 211.99 315.148 213.035 310.823C213.815 307.568 214.386 305.75 215.587 302.619M225.251 310.589L224.554 315.767L224.554 320.251M248.453 287.779L249.918 293.193L250.383 303.084M256.956 288.313C259.879 294.636 261.193 298.406 262.833 305.173C264.211 310.866 264.728 314.177 265.155 320.021M213.96 251.428L216.747 252.129L221.231 257.001L216.747 247.18L212.103 250.197L208.316 257.308L207.387 260.327L217.444 263.644L224.784 269.454M207.853 261.714C207.416 263.438 207.048 264.393 206.228 265.97C204.157 269.941 200.486 270.322 198.189 274.167C197.055 276.069 196.503 277.227 195.866 279.346C195.2 281.566 194.728 282.914 194.938 285.225C195.142 287.445 194.997 289.321 196.795 290.639C197.955 291.485 198.926 291.736 200.354 291.568C202.19 290.451 203.12 289.41 205.23 289.008C213.035 287.543 215.823 286.848 221.466 285.225C223.375 284.585 224.952 284.76 225.485 281.977C226.335 277.547 224.323 275.868 223.555 272.308L224.788 270.218M224.018 285.454C226.08 286.828 227.157 287.8 228.731 289.709C230.488 291.834 231.306 293.242 232.286 295.816C230.7 297.518 229.696 298.406 227.805 299.76C226.508 300.697 225.734 301.176 224.321 301.926C221.246 302.535 219.389 302.591 216.286 302.154C211.994 301.557 209.469 300.628 205.923 298.135C203.289 296.289 201.939 294.92 200.119 292.264M222.392 303.086C222.319 304.406 222.749 305.363 223.786 306.174C224.952 307.098 226.216 307.25 227.573 306.64C230.895 305.411 237.006 300.066 237.006 300.066L233.448 296.047M228.038 307.57C229.759 310.645 231.059 312.26 233.682 314.616C236.049 316.734 237.605 317.76 240.488 319.093L242.578 320.716L245.672 320.944M240.949 314.609C242.407 315.691 243.164 316.427 244.275 317.857C245.385 319.288 245.047 320.944 246.597 321.876C248.252 322.874 249.89 322.874 251.546 321.876M245.898 313.448L248.224 317.392L249.689 321.647M269.87 262.417C271.467 264.657 271.963 266.477 271.727 269.218C271.56 271.162 270.826 272.133 270.102 273.931C269.234 276.104 268.665 277.299 267.548 279.346L255.564 277.958L247.404 277.722L236.236 278.88M238.399 284.76L251.312 284.059L266.782 285.454L267.55 281.434M288.892 255.148C287.803 255.91 287.292 256.695 287.035 258C286.842 258.985 286.9 259.625 287.268 260.554C288.774 261.186 289.645 261.499 291.215 261.949C293.46 262.596 294.771 262.85 297.089 263.109C297.801 261.506 298.513 260.638 299.951 259.625C302.509 257.825 304.931 259.63 307.915 258.693C309.348 258.251 310.008 257.555 311.473 257.23C313.267 256.84 315.374 258.881 316.186 257.23C316.59 256.423 316.59 255.722 316.186 254.912M285.107 262.646C287.005 261.91 288.262 261.737 290.289 261.95C292.986 262.227 294.113 263.791 296.626 264.812C297.556 265.185 299.092 264.735 299.021 265.734C298.792 269.218 296.487 269.419 294.072 269.454C291.938 269.484 291.469 267.005 289.359 266.663C287.801 266.414 286.541 268.156 285.34 267.13C284.784 266.658 284.535 266.228 284.41 265.505M273.657 249.965L278.301 253.523L280.928 265.267M283.482 265.97L278.766 268.06L272.192 276.097M294.537 270.218C290.982 276.097 290.289 277.958 288.195 285.454C287.082 289.458 285.34 294.887 280.696 299.3C279.346 300.58 278.301 301.606 276.444 301.459C275.587 301.39 275.079 301.223 274.35 300.765M305.364 257.308L307.683 257.001" fill="none" opacity="1" stroke="#ffffff" stroke-linecap="round" stroke-linejoin="round" stroke-width="3.32326"/>
<path d="M136.85 350.191C110.539 324.555 96.5623 288.086 96.5623 247.503C96.5623 167.317 163.191 98.3077 243.387 96.3407M47.5 247.501C47.5 137.039 137.041 47.4994 247.499 47.4994C357.957 47.4994 447.5 137.041 447.5 247.501C447.5 357.956 357.955 447.499 247.499 447.499C137.041 447.499 47.5 357.956 47.5 247.501L47.5 247.501ZM253.173 96.614C332.926 100.658 398.438 166.742 398.438 247.501C398.438 286.619 382.33 322.986 357.922 349.8M337.67 368.514C318.187 383.757 280.96 397.535 251.779 399.432M239.28 398.876C207.978 397.245 182.658 386.715 159.254 368.867" fill="none" opacity="1" stroke="#ffffff" stroke-linecap="butt" stroke-linejoin="miter" stroke-width="3.32326"/>
<path d="M151.1 364.045C151.1 360.873 153.675 358.296 156.85 358.296C160.025 358.296 162.6 360.873 162.6 364.045C162.6 367.224 160.025 369.801 156.85 369.801C153.675 369.799 151.1 367.224 151.1 364.045L151.1 364.045ZM334.363 364.045C334.363 360.873 336.942 358.296 340.117 358.296C343.292 358.296 345.867 360.873 345.867 364.045C345.867 367.224 343.292 369.801 340.117 369.801C336.942 369.799 334.363 367.224 334.363 364.045L334.363 364.045Z" fill="none" opacity="1" stroke="#ffffff" stroke-linecap="round" stroke-linejoin="round" stroke-width="3.32326"/>
<path d="M234.428 67.738C235.917 62.7964 242.254 60.2791 246.731 62.8522C249.459 64.4213 250.812 66.5797 250.957 69.7235C251.121 73.2782 249.09 75.3493 246.317 77.5821C244.474 79.0712 243.143 79.6996 240.823 80.1811M216.31 79.6067C205.708 86.069 201.952 81.2948 201.792 75.6858C201.646 70.5137 206.595 68.002 212.202 67.461C222.736 66.4403 226.136 79.7721 239.936 80.17L243.204 80.1142L246.187 80.0622C259.963 79.1772 262.898 65.7394 273.46 66.3901C279.078 66.734 284.111 69.0765 284.15 74.2524C284.189 79.8577 280.599 84.7621 269.779 78.6734" fill="none" opacity="1" stroke="#ffffff" stroke-linecap="round" stroke-linejoin="round" stroke-width="3.32326"/>
<path d="M124.99 198.865C124.99 198.865 119.469 206.989 116.635 212.57C114.224 217.333 111.274 225.162 111.274 225.162C113.796 228.057 115.168 228.956 116.635 232.017C118.494 235.889 118.08 236.796 117.628 239.433M127.368 235.144C119.705 238.676 107.537 244.088 107.252 248.107C106.828 254.205 117.615 262.181 125.723 267.554C129.67 262.25 131.123 258.212 131.46 251.617C131.8 245.003 130.759 240.823 127.368 235.144L127.368 235.144ZM129.971 241.998L121.627 245.499M131.088 251.608L121.255 251.608M129.599 260.327L120.513 256.821M117 261.666C116.522 263.878 116.105 265.122 115.146 267.176C113.616 270.469 112.369 272.231 109.784 274.779C112.711 278.783 114.566 280.921 118.124 284.385C120.915 287.106 122.597 288.542 125.721 290.867" fill="none" opacity="1" stroke="#ffffff" stroke-linecap="butt" stroke-linejoin="miter" stroke-width="3.32326"/>
<path d="M370.443 198.865C370.443 198.865 375.965 206.989 378.798 212.57C381.213 217.333 384.163 225.162 384.163 225.162C381.637 228.057 380.265 228.956 378.798 232.017C376.939 235.889 377.028 237.109 377.48 239.745M368.069 235.144C376.74 236.122 387.599 248.95 389.493 252.595C391.462 256.377 376.74 264.345 369.71 267.554C365.764 262.25 364.31 258.212 363.973 251.617C363.637 245.003 364.676 240.823 368.069 235.144L368.069 235.144ZM365.462 241.998L373.802 245.499M364.345 251.608L374.178 251.608M365.834 260.327L374.92 256.821M378.422 263.202C378.69 266.104 379.118 267.76 380.285 270.428C381.739 273.752 383.007 275.543 385.647 278.028C382.721 282.033 380.865 284.178 377.303 287.642C374.516 290.356 372.834 291.793 369.71 294.117" fill="none" opacity="1" stroke="#ffffff" stroke-linecap="butt" stroke-linejoin="miter" stroke-width="3.32326"/>
<path d="M181.284 343.764L208.359 343.527M279.998 343.764L311.702 343.527M226.643 280.741L228.967 279.811M252.472 321.876C252.472 320.695 252.424 320.03 252.244 318.857C251.74 315.637 251.022 313.776 249.224 311.054L246.131 305.411L241.414 302.621L238.399 301.461" fill="none" opacity="1" stroke="#ffffff" stroke-linecap="round" stroke-linejoin="round" stroke-width="3.32326"/>
</g>
</g>
</svg>
